%FSLAX44Y44*%
%MOMM*%
G71*
G01*
G75*
G04 Layer_Color=8388736*
%ADD10C,0.1500*%
%ADD11C,1.0000*%
%ADD12O,1.0500X2.2000*%
G04:AMPARAMS|DCode=13|XSize=0.6mm|YSize=0.5mm|CornerRadius=0.05mm|HoleSize=0mm|Usage=FLASHONLY|Rotation=0.000|XOffset=0mm|YOffset=0mm|HoleType=Round|Shape=RoundedRectangle|*
%AMROUNDEDRECTD13*
21,1,0.6000,0.4000,0,0,0.0*
21,1,0.5000,0.5000,0,0,0.0*
1,1,0.1000,0.2500,-0.2000*
1,1,0.1000,-0.2500,-0.2000*
1,1,0.1000,-0.2500,0.2000*
1,1,0.1000,0.2500,0.2000*
%
%ADD13ROUNDEDRECTD13*%
G04:AMPARAMS|DCode=14|XSize=0.45mm|YSize=0.65mm|CornerRadius=0.1125mm|HoleSize=0mm|Usage=FLASHONLY|Rotation=180.000|XOffset=0mm|YOffset=0mm|HoleType=Round|Shape=RoundedRectangle|*
%AMROUNDEDRECTD14*
21,1,0.4500,0.4250,0,0,180.0*
21,1,0.2250,0.6500,0,0,180.0*
1,1,0.2250,-0.1125,0.2125*
1,1,0.2250,0.1125,0.2125*
1,1,0.2250,0.1125,-0.2125*
1,1,0.2250,-0.1125,-0.2125*
%
%ADD14ROUNDEDRECTD14*%
%ADD15O,0.3000X0.6500*%
G04:AMPARAMS|DCode=16|XSize=0.4mm|YSize=0.37mm|CornerRadius=0.037mm|HoleSize=0mm|Usage=FLASHONLY|Rotation=90.000|XOffset=0mm|YOffset=0mm|HoleType=Round|Shape=RoundedRectangle|*
%AMROUNDEDRECTD16*
21,1,0.4000,0.2960,0,0,90.0*
21,1,0.3260,0.3700,0,0,90.0*
1,1,0.0740,0.1480,0.1630*
1,1,0.0740,0.1480,-0.1630*
1,1,0.0740,-0.1480,-0.1630*
1,1,0.0740,-0.1480,0.1630*
%
%ADD16ROUNDEDRECTD16*%
G04:AMPARAMS|DCode=17|XSize=0.6mm|YSize=0.5mm|CornerRadius=0.05mm|HoleSize=0mm|Usage=FLASHONLY|Rotation=270.000|XOffset=0mm|YOffset=0mm|HoleType=Round|Shape=RoundedRectangle|*
%AMROUNDEDRECTD17*
21,1,0.6000,0.4000,0,0,270.0*
21,1,0.5000,0.5000,0,0,270.0*
1,1,0.1000,-0.2000,-0.2500*
1,1,0.1000,-0.2000,0.2500*
1,1,0.1000,0.2000,0.2500*
1,1,0.1000,0.2000,-0.2500*
%
%ADD17ROUNDEDRECTD17*%
G04:AMPARAMS|DCode=18|XSize=0.4mm|YSize=0.37mm|CornerRadius=0.037mm|HoleSize=0mm|Usage=FLASHONLY|Rotation=180.000|XOffset=0mm|YOffset=0mm|HoleType=Round|Shape=RoundedRectangle|*
%AMROUNDEDRECTD18*
21,1,0.4000,0.2960,0,0,180.0*
21,1,0.3260,0.3700,0,0,180.0*
1,1,0.0740,-0.1630,0.1480*
1,1,0.0740,0.1630,0.1480*
1,1,0.0740,0.1630,-0.1480*
1,1,0.0740,-0.1630,-0.1480*
%
%ADD18ROUNDEDRECTD18*%
G04:AMPARAMS|DCode=19|XSize=0.5mm|YSize=0.62mm|CornerRadius=0.1mm|HoleSize=0mm|Usage=FLASHONLY|Rotation=90.000|XOffset=0mm|YOffset=0mm|HoleType=Round|Shape=RoundedRectangle|*
%AMROUNDEDRECTD19*
21,1,0.5000,0.4200,0,0,90.0*
21,1,0.3000,0.6200,0,0,90.0*
1,1,0.2000,0.2100,0.1500*
1,1,0.2000,0.2100,-0.1500*
1,1,0.2000,-0.2100,-0.1500*
1,1,0.2000,-0.2100,0.1500*
%
%ADD19ROUNDEDRECTD19*%
G04:AMPARAMS|DCode=20|XSize=0.5mm|YSize=0.62mm|CornerRadius=0.1mm|HoleSize=0mm|Usage=FLASHONLY|Rotation=180.000|XOffset=0mm|YOffset=0mm|HoleType=Round|Shape=RoundedRectangle|*
%AMROUNDEDRECTD20*
21,1,0.5000,0.4200,0,0,180.0*
21,1,0.3000,0.6200,0,0,180.0*
1,1,0.2000,-0.1500,0.2100*
1,1,0.2000,0.1500,0.2100*
1,1,0.2000,0.1500,-0.2100*
1,1,0.2000,-0.1500,-0.2100*
%
%ADD20ROUNDEDRECTD20*%
G04:AMPARAMS|DCode=21|XSize=1mm|YSize=0.7mm|CornerRadius=0.1155mm|HoleSize=0mm|Usage=FLASHONLY|Rotation=90.000|XOffset=0mm|YOffset=0mm|HoleType=Round|Shape=RoundedRectangle|*
%AMROUNDEDRECTD21*
21,1,1.0000,0.4690,0,0,90.0*
21,1,0.7690,0.7000,0,0,90.0*
1,1,0.2310,0.2345,0.3845*
1,1,0.2310,0.2345,-0.3845*
1,1,0.2310,-0.2345,-0.3845*
1,1,0.2310,-0.2345,0.3845*
%
%ADD21ROUNDEDRECTD21*%
G04:AMPARAMS|DCode=22|XSize=1mm|YSize=0.7mm|CornerRadius=0.1155mm|HoleSize=0mm|Usage=FLASHONLY|Rotation=0.000|XOffset=0mm|YOffset=0mm|HoleType=Round|Shape=RoundedRectangle|*
%AMROUNDEDRECTD22*
21,1,1.0000,0.4690,0,0,0.0*
21,1,0.7690,0.7000,0,0,0.0*
1,1,0.2310,0.3845,-0.2345*
1,1,0.2310,-0.3845,-0.2345*
1,1,0.2310,-0.3845,0.2345*
1,1,0.2310,0.3845,0.2345*
%
%ADD22ROUNDEDRECTD22*%
G04:AMPARAMS|DCode=23|XSize=1.1mm|YSize=1.1mm|CornerRadius=0.1815mm|HoleSize=0mm|Usage=FLASHONLY|Rotation=90.000|XOffset=0mm|YOffset=0mm|HoleType=Round|Shape=RoundedRectangle|*
%AMROUNDEDRECTD23*
21,1,1.1000,0.7370,0,0,90.0*
21,1,0.7370,1.1000,0,0,90.0*
1,1,0.3630,0.3685,0.3685*
1,1,0.3630,0.3685,-0.3685*
1,1,0.3630,-0.3685,-0.3685*
1,1,0.3630,-0.3685,0.3685*
%
%ADD23ROUNDEDRECTD23*%
%ADD24O,1.0500X0.6000*%
G04:AMPARAMS|DCode=25|XSize=0.8mm|YSize=1.5mm|CornerRadius=0.2mm|HoleSize=0mm|Usage=FLASHONLY|Rotation=0.000|XOffset=0mm|YOffset=0mm|HoleType=Round|Shape=RoundedRectangle|*
%AMROUNDEDRECTD25*
21,1,0.8000,1.1000,0,0,0.0*
21,1,0.4000,1.5000,0,0,0.0*
1,1,0.4000,0.2000,-0.5500*
1,1,0.4000,-0.2000,-0.5500*
1,1,0.4000,-0.2000,0.5500*
1,1,0.4000,0.2000,0.5500*
%
%ADD25ROUNDEDRECTD25*%
G04:AMPARAMS|DCode=26|XSize=1.45mm|YSize=0.9mm|CornerRadius=0.225mm|HoleSize=0mm|Usage=FLASHONLY|Rotation=0.000|XOffset=0mm|YOffset=0mm|HoleType=Round|Shape=RoundedRectangle|*
%AMROUNDEDRECTD26*
21,1,1.4500,0.4500,0,0,0.0*
21,1,1.0000,0.9000,0,0,0.0*
1,1,0.4500,0.5000,-0.2250*
1,1,0.4500,-0.5000,-0.2250*
1,1,0.4500,-0.5000,0.2250*
1,1,0.4500,0.5000,0.2250*
%
%ADD26ROUNDEDRECTD26*%
G04:AMPARAMS|DCode=27|XSize=1.45mm|YSize=2mm|CornerRadius=0.3625mm|HoleSize=0mm|Usage=FLASHONLY|Rotation=0.000|XOffset=0mm|YOffset=0mm|HoleType=Round|Shape=RoundedRectangle|*
%AMROUNDEDRECTD27*
21,1,1.4500,1.2750,0,0,0.0*
21,1,0.7250,2.0000,0,0,0.0*
1,1,0.7250,0.3625,-0.6375*
1,1,0.7250,-0.3625,-0.6375*
1,1,0.7250,-0.3625,0.6375*
1,1,0.7250,0.3625,0.6375*
%
%ADD27ROUNDEDRECTD27*%
%ADD28O,0.7600X1.6000*%
%ADD29C,0.3500*%
%ADD30C,0.4000*%
G04:AMPARAMS|DCode=31|XSize=0.3mm|YSize=0.6mm|CornerRadius=0.0495mm|HoleSize=0mm|Usage=FLASHONLY|Rotation=0.000|XOffset=0mm|YOffset=0mm|HoleType=Round|Shape=RoundedRectangle|*
%AMROUNDEDRECTD31*
21,1,0.3000,0.5010,0,0,0.0*
21,1,0.2010,0.6000,0,0,0.0*
1,1,0.0990,0.1005,-0.2505*
1,1,0.0990,-0.1005,-0.2505*
1,1,0.0990,-0.1005,0.2505*
1,1,0.0990,0.1005,0.2505*
%
%ADD31ROUNDEDRECTD31*%
G04:AMPARAMS|DCode=32|XSize=0.3mm|YSize=0.6mm|CornerRadius=0.0495mm|HoleSize=0mm|Usage=FLASHONLY|Rotation=270.000|XOffset=0mm|YOffset=0mm|HoleType=Round|Shape=RoundedRectangle|*
%AMROUNDEDRECTD32*
21,1,0.3000,0.5010,0,0,270.0*
21,1,0.2010,0.6000,0,0,270.0*
1,1,0.0990,-0.2505,-0.1005*
1,1,0.0990,-0.2505,0.1005*
1,1,0.0990,0.2505,0.1005*
1,1,0.0990,0.2505,-0.1005*
%
%ADD32ROUNDEDRECTD32*%
%ADD33R,2.2500X0.9000*%
%ADD34R,0.7400X0.5400*%
%ADD35R,0.9000X1.0000*%
%ADD36R,0.6500X1.2000*%
G04:AMPARAMS|DCode=37|XSize=1.82mm|YSize=1.07mm|CornerRadius=0.107mm|HoleSize=0mm|Usage=FLASHONLY|Rotation=180.000|XOffset=0mm|YOffset=0mm|HoleType=Round|Shape=RoundedRectangle|*
%AMROUNDEDRECTD37*
21,1,1.8200,0.8560,0,0,180.0*
21,1,1.6060,1.0700,0,0,180.0*
1,1,0.2140,-0.8030,0.4280*
1,1,0.2140,0.8030,0.4280*
1,1,0.2140,0.8030,-0.4280*
1,1,0.2140,-0.8030,-0.4280*
%
%ADD37ROUNDEDRECTD37*%
%ADD38R,1.0000X2.0000*%
%ADD39R,2.8000X0.8000*%
%ADD40C,2.0000*%
%ADD41C,0.2000*%
%ADD42C,0.3000*%
%ADD43C,0.1000*%
%ADD44C,0.3810*%
%ADD45C,0.5000*%
%ADD46C,0.4000*%
%ADD47R,1.5000X1.5000*%
%ADD48C,1.5000*%
%ADD49R,1.5000X1.5000*%
%ADD50C,0.8000*%
%ADD51C,6.0000*%
%ADD52C,0.5000*%
G04:AMPARAMS|DCode=53|XSize=1.82mm|YSize=1.07mm|CornerRadius=0.107mm|HoleSize=0mm|Usage=FLASHONLY|Rotation=270.000|XOffset=0mm|YOffset=0mm|HoleType=Round|Shape=RoundedRectangle|*
%AMROUNDEDRECTD53*
21,1,1.8200,0.8560,0,0,270.0*
21,1,1.6060,1.0700,0,0,270.0*
1,1,0.2140,-0.4280,-0.8030*
1,1,0.2140,-0.4280,0.8030*
1,1,0.2140,0.4280,0.8030*
1,1,0.2140,0.4280,-0.8030*
%
%ADD53ROUNDEDRECTD53*%
G04:AMPARAMS|DCode=54|XSize=1.5mm|YSize=2.8mm|CornerRadius=0.375mm|HoleSize=0mm|Usage=FLASHONLY|Rotation=0.000|XOffset=0mm|YOffset=0mm|HoleType=Round|Shape=RoundedRectangle|*
%AMROUNDEDRECTD54*
21,1,1.5000,2.0500,0,0,0.0*
21,1,0.7500,2.8000,0,0,0.0*
1,1,0.7500,0.3750,-1.0250*
1,1,0.7500,-0.3750,-1.0250*
1,1,0.7500,-0.3750,1.0250*
1,1,0.7500,0.3750,1.0250*
%
%ADD54ROUNDEDRECTD54*%
G04:AMPARAMS|DCode=55|XSize=1mm|YSize=1.5mm|CornerRadius=0.25mm|HoleSize=0mm|Usage=FLASHONLY|Rotation=0.000|XOffset=0mm|YOffset=0mm|HoleType=Round|Shape=RoundedRectangle|*
%AMROUNDEDRECTD55*
21,1,1.0000,1.0000,0,0,0.0*
21,1,0.5000,1.5000,0,0,0.0*
1,1,0.5000,0.2500,-0.5000*
1,1,0.5000,-0.2500,-0.5000*
1,1,0.5000,-0.2500,0.5000*
1,1,0.5000,0.2500,0.5000*
%
%ADD55ROUNDEDRECTD55*%
G04:AMPARAMS|DCode=56|XSize=0.7mm|YSize=1.5mm|CornerRadius=0.175mm|HoleSize=0mm|Usage=FLASHONLY|Rotation=0.000|XOffset=0mm|YOffset=0mm|HoleType=Round|Shape=RoundedRectangle|*
%AMROUNDEDRECTD56*
21,1,0.7000,1.1500,0,0,0.0*
21,1,0.3500,1.5000,0,0,0.0*
1,1,0.3500,0.1750,-0.5750*
1,1,0.3500,-0.1750,-0.5750*
1,1,0.3500,-0.1750,0.5750*
1,1,0.3500,0.1750,0.5750*
%
%ADD56ROUNDEDRECTD56*%
G04:AMPARAMS|DCode=57|XSize=0.9mm|YSize=0.8mm|CornerRadius=0.08mm|HoleSize=0mm|Usage=FLASHONLY|Rotation=0.000|XOffset=0mm|YOffset=0mm|HoleType=Round|Shape=RoundedRectangle|*
%AMROUNDEDRECTD57*
21,1,0.9000,0.6400,0,0,0.0*
21,1,0.7400,0.8000,0,0,0.0*
1,1,0.1600,0.3700,-0.3200*
1,1,0.1600,-0.3700,-0.3200*
1,1,0.1600,-0.3700,0.3200*
1,1,0.1600,0.3700,0.3200*
%
%ADD57ROUNDEDRECTD57*%
G04:AMPARAMS|DCode=58|XSize=0.45mm|YSize=0.65mm|CornerRadius=0.1125mm|HoleSize=0mm|Usage=FLASHONLY|Rotation=270.000|XOffset=0mm|YOffset=0mm|HoleType=Round|Shape=RoundedRectangle|*
%AMROUNDEDRECTD58*
21,1,0.4500,0.4250,0,0,270.0*
21,1,0.2250,0.6500,0,0,270.0*
1,1,0.2250,-0.2125,-0.1125*
1,1,0.2250,-0.2125,0.1125*
1,1,0.2250,0.2125,0.1125*
1,1,0.2250,0.2125,-0.1125*
%
%ADD58ROUNDEDRECTD58*%
%ADD59O,0.6500X0.3000*%
%ADD60C,1.0000*%
%ADD61C,0.7500*%
%ADD62C,2.0000*%
D11*
X135900Y349252D02*
D03*
X735000Y322500D02*
D03*
X730000Y20000D02*
D03*
X20000D02*
D03*
D12*
X150650Y334002D02*
D03*
X121150D02*
D03*
D13*
X465000Y142827D02*
D03*
Y133827D02*
D03*
X158676Y162741D02*
D03*
Y171741D02*
D03*
X564053Y362836D02*
D03*
Y371836D02*
D03*
X573584Y362836D02*
D03*
Y371836D02*
D03*
X554567Y362758D02*
D03*
Y371758D02*
D03*
X409384Y231349D02*
D03*
Y240349D02*
D03*
X158846Y235144D02*
D03*
Y244144D02*
D03*
X95000Y170500D02*
D03*
Y179500D02*
D03*
X97658Y154931D02*
D03*
Y163931D02*
D03*
X409135Y312811D02*
D03*
Y303811D02*
D03*
D14*
X714250Y127500D02*
D03*
X697750D02*
D03*
X714250Y116500D02*
D03*
X697750D02*
D03*
X687250Y226500D02*
D03*
X670750D02*
D03*
X687250Y215500D02*
D03*
X670750D02*
D03*
D15*
X708500Y127500D02*
D03*
X703500D02*
D03*
X708500Y116500D02*
D03*
X703500D02*
D03*
X681500Y226500D02*
D03*
X676500D02*
D03*
X681500Y215500D02*
D03*
X676500D02*
D03*
D16*
X594850Y362000D02*
D03*
X589150D02*
D03*
X171850Y304000D02*
D03*
X166150D02*
D03*
X121997Y366698D02*
D03*
X127697D02*
D03*
X451456Y246171D02*
D03*
X457156D02*
D03*
X441783Y245919D02*
D03*
X436083D02*
D03*
X588663Y172478D02*
D03*
X582963D02*
D03*
X597262Y172542D02*
D03*
X602962D02*
D03*
X549673Y173901D02*
D03*
X543973D02*
D03*
X413324Y150493D02*
D03*
X407624D02*
D03*
X472133Y246233D02*
D03*
X466433D02*
D03*
X427394Y245919D02*
D03*
X421694D02*
D03*
D17*
X501500Y334000D02*
D03*
X492500D02*
D03*
D18*
X135900Y366700D02*
D03*
Y361000D02*
D03*
X510193Y283253D02*
D03*
Y277553D02*
D03*
X410418Y333050D02*
D03*
Y327350D02*
D03*
X545608Y368447D02*
D03*
Y362747D02*
D03*
X504897Y342579D02*
D03*
Y348279D02*
D03*
X409539Y202796D02*
D03*
Y208496D02*
D03*
X409421Y294404D02*
D03*
Y288704D02*
D03*
X409418Y266648D02*
D03*
Y272348D02*
D03*
X409554Y222644D02*
D03*
Y216944D02*
D03*
X511474Y198097D02*
D03*
Y203798D02*
D03*
X455000Y142850D02*
D03*
Y137150D02*
D03*
X513318Y186478D02*
D03*
Y180778D02*
D03*
X514131Y267688D02*
D03*
Y261988D02*
D03*
X573525Y167979D02*
D03*
Y173680D02*
D03*
X401000Y332850D02*
D03*
Y327150D02*
D03*
D19*
X113598Y376702D02*
D03*
Y366702D02*
D03*
D20*
X94398Y366698D02*
D03*
X104398D02*
D03*
D21*
X183000Y323000D02*
D03*
X192000D02*
D03*
X201000D02*
D03*
X210000D02*
D03*
X219000D02*
D03*
X228000D02*
D03*
X226000Y386500D02*
D03*
X217000D02*
D03*
X208000D02*
D03*
X199000D02*
D03*
X190000D02*
D03*
X181000D02*
D03*
D22*
X173250Y377000D02*
D03*
Y368000D02*
D03*
Y359000D02*
D03*
Y350000D02*
D03*
Y341000D02*
D03*
Y332000D02*
D03*
X236500Y378000D02*
D03*
Y369000D02*
D03*
Y360000D02*
D03*
Y351000D02*
D03*
Y342000D02*
D03*
Y333000D02*
D03*
D23*
X205000Y339000D02*
D03*
X189000Y355000D02*
D03*
X221000D02*
D03*
X205000Y371000D02*
D03*
Y355000D02*
D03*
D24*
X477660Y144626D02*
D03*
Y125626D02*
D03*
X500660Y135126D02*
D03*
D25*
X540030Y247312D02*
D03*
X551030D02*
D03*
X562030D02*
D03*
X573031D02*
D03*
X584030D02*
D03*
X595030D02*
D03*
X606030D02*
D03*
X617030D02*
D03*
D26*
X653780Y204312D02*
D03*
X516280Y321312D02*
D03*
D27*
Y304312D02*
D03*
X653780D02*
D03*
Y221312D02*
D03*
X516280D02*
D03*
D28*
X431660Y332844D02*
D03*
X444360D02*
D03*
X457060D02*
D03*
X469760D02*
D03*
X431660Y383644D02*
D03*
X444360D02*
D03*
X457060D02*
D03*
X469760D02*
D03*
D29*
X440523Y185774D02*
D03*
Y195774D02*
D03*
Y205774D02*
D03*
Y215774D02*
D03*
Y225774D02*
D03*
X450523Y185774D02*
D03*
Y195774D02*
D03*
Y205774D02*
D03*
Y215774D02*
D03*
Y225774D02*
D03*
X460523Y185774D02*
D03*
Y195774D02*
D03*
Y205774D02*
D03*
Y215774D02*
D03*
Y225774D02*
D03*
X470523Y185774D02*
D03*
Y195774D02*
D03*
Y205774D02*
D03*
Y215774D02*
D03*
Y225774D02*
D03*
X480523Y185774D02*
D03*
Y195774D02*
D03*
Y205774D02*
D03*
Y215774D02*
D03*
X440423Y266688D02*
D03*
Y276688D02*
D03*
Y286688D02*
D03*
Y296688D02*
D03*
Y306688D02*
D03*
X450423Y266688D02*
D03*
Y276688D02*
D03*
Y286688D02*
D03*
Y296688D02*
D03*
Y306688D02*
D03*
X460423Y266688D02*
D03*
Y276688D02*
D03*
Y286688D02*
D03*
Y296688D02*
D03*
Y306688D02*
D03*
X470423Y266688D02*
D03*
Y276688D02*
D03*
Y286688D02*
D03*
Y296688D02*
D03*
Y306688D02*
D03*
X480423Y266688D02*
D03*
Y276688D02*
D03*
Y286688D02*
D03*
Y296688D02*
D03*
D30*
X237472Y127552D02*
D03*
Y135552D02*
D03*
Y143552D02*
D03*
Y151552D02*
D03*
Y159552D02*
D03*
Y167552D02*
D03*
Y175552D02*
D03*
Y183552D02*
D03*
Y191552D02*
D03*
Y199552D02*
D03*
Y207552D02*
D03*
Y215552D02*
D03*
Y223552D02*
D03*
Y231552D02*
D03*
Y239552D02*
D03*
Y247552D02*
D03*
Y255552D02*
D03*
Y263552D02*
D03*
Y271552D02*
D03*
Y279552D02*
D03*
X245473Y127552D02*
D03*
Y135552D02*
D03*
Y143552D02*
D03*
Y151552D02*
D03*
Y159552D02*
D03*
Y167552D02*
D03*
Y175552D02*
D03*
Y183552D02*
D03*
Y191552D02*
D03*
Y199552D02*
D03*
Y207552D02*
D03*
Y215552D02*
D03*
Y223552D02*
D03*
Y231552D02*
D03*
Y239552D02*
D03*
Y247552D02*
D03*
Y255552D02*
D03*
Y263552D02*
D03*
Y271552D02*
D03*
Y279552D02*
D03*
X253472Y127552D02*
D03*
Y135552D02*
D03*
Y143552D02*
D03*
Y151552D02*
D03*
Y159552D02*
D03*
Y167552D02*
D03*
Y175552D02*
D03*
Y183552D02*
D03*
Y191552D02*
D03*
Y199552D02*
D03*
Y207552D02*
D03*
Y215552D02*
D03*
Y223552D02*
D03*
Y231552D02*
D03*
Y239552D02*
D03*
Y247552D02*
D03*
Y255552D02*
D03*
Y263552D02*
D03*
Y271552D02*
D03*
Y279552D02*
D03*
X261472Y127552D02*
D03*
Y135552D02*
D03*
Y143552D02*
D03*
Y151552D02*
D03*
Y159552D02*
D03*
Y167552D02*
D03*
Y175552D02*
D03*
Y183552D02*
D03*
Y191552D02*
D03*
Y199552D02*
D03*
Y207552D02*
D03*
Y215552D02*
D03*
Y223552D02*
D03*
Y231552D02*
D03*
Y239552D02*
D03*
Y247552D02*
D03*
Y255552D02*
D03*
Y263552D02*
D03*
Y271552D02*
D03*
Y279552D02*
D03*
X269473Y127552D02*
D03*
Y135552D02*
D03*
Y143552D02*
D03*
Y151552D02*
D03*
Y159552D02*
D03*
Y167552D02*
D03*
Y175552D02*
D03*
Y183552D02*
D03*
Y191552D02*
D03*
Y199552D02*
D03*
Y207552D02*
D03*
Y215552D02*
D03*
Y223552D02*
D03*
Y231552D02*
D03*
Y239552D02*
D03*
Y247552D02*
D03*
Y255552D02*
D03*
Y263552D02*
D03*
Y271552D02*
D03*
Y279552D02*
D03*
X277472Y127552D02*
D03*
Y135552D02*
D03*
Y143552D02*
D03*
Y151552D02*
D03*
Y159552D02*
D03*
Y167552D02*
D03*
Y175552D02*
D03*
Y183552D02*
D03*
Y191552D02*
D03*
Y199552D02*
D03*
Y207552D02*
D03*
Y215552D02*
D03*
Y223552D02*
D03*
Y231552D02*
D03*
Y239552D02*
D03*
Y247552D02*
D03*
Y255552D02*
D03*
Y263552D02*
D03*
Y271552D02*
D03*
Y279552D02*
D03*
X285473Y127552D02*
D03*
Y135552D02*
D03*
Y143552D02*
D03*
Y151552D02*
D03*
Y159552D02*
D03*
Y167552D02*
D03*
Y175552D02*
D03*
Y183552D02*
D03*
Y191552D02*
D03*
Y199552D02*
D03*
Y207552D02*
D03*
Y215552D02*
D03*
Y223552D02*
D03*
Y231552D02*
D03*
Y239552D02*
D03*
Y247552D02*
D03*
Y255552D02*
D03*
Y263552D02*
D03*
Y271552D02*
D03*
Y279552D02*
D03*
X293472Y127552D02*
D03*
Y135552D02*
D03*
Y143552D02*
D03*
Y151552D02*
D03*
Y159552D02*
D03*
Y167552D02*
D03*
Y175552D02*
D03*
Y183552D02*
D03*
Y191552D02*
D03*
Y199552D02*
D03*
Y207552D02*
D03*
Y215552D02*
D03*
Y223552D02*
D03*
Y231552D02*
D03*
Y239552D02*
D03*
Y247552D02*
D03*
Y255552D02*
D03*
Y263552D02*
D03*
Y271552D02*
D03*
Y279552D02*
D03*
X301472Y127552D02*
D03*
Y135552D02*
D03*
Y143552D02*
D03*
Y151552D02*
D03*
Y159552D02*
D03*
Y167552D02*
D03*
Y175552D02*
D03*
Y183552D02*
D03*
Y191552D02*
D03*
Y199552D02*
D03*
Y207552D02*
D03*
Y215552D02*
D03*
Y223552D02*
D03*
Y231552D02*
D03*
Y239552D02*
D03*
Y247552D02*
D03*
Y255552D02*
D03*
Y263552D02*
D03*
Y271552D02*
D03*
Y279552D02*
D03*
X309473Y127552D02*
D03*
Y135552D02*
D03*
Y143552D02*
D03*
Y151552D02*
D03*
Y159552D02*
D03*
Y167552D02*
D03*
Y175552D02*
D03*
Y183552D02*
D03*
Y191552D02*
D03*
Y199552D02*
D03*
Y207552D02*
D03*
Y215552D02*
D03*
Y223552D02*
D03*
Y231552D02*
D03*
Y239552D02*
D03*
Y247552D02*
D03*
Y255552D02*
D03*
Y263552D02*
D03*
Y271552D02*
D03*
Y279552D02*
D03*
X317472Y127552D02*
D03*
Y135552D02*
D03*
Y143552D02*
D03*
Y151552D02*
D03*
Y159552D02*
D03*
Y167552D02*
D03*
Y175552D02*
D03*
Y183552D02*
D03*
Y191552D02*
D03*
Y199552D02*
D03*
Y207552D02*
D03*
Y215552D02*
D03*
Y223552D02*
D03*
Y231552D02*
D03*
Y239552D02*
D03*
Y247552D02*
D03*
Y255552D02*
D03*
Y263552D02*
D03*
Y271552D02*
D03*
Y279552D02*
D03*
X325472Y127552D02*
D03*
Y135552D02*
D03*
Y143552D02*
D03*
Y151552D02*
D03*
Y159552D02*
D03*
Y167552D02*
D03*
Y175552D02*
D03*
Y183552D02*
D03*
Y191552D02*
D03*
Y199552D02*
D03*
Y207552D02*
D03*
Y215552D02*
D03*
Y223552D02*
D03*
Y231552D02*
D03*
Y239552D02*
D03*
Y247552D02*
D03*
Y255552D02*
D03*
Y263552D02*
D03*
Y271552D02*
D03*
Y279552D02*
D03*
X333473Y127552D02*
D03*
Y135552D02*
D03*
Y143552D02*
D03*
Y151552D02*
D03*
Y159552D02*
D03*
Y167552D02*
D03*
Y175552D02*
D03*
Y183552D02*
D03*
Y191552D02*
D03*
Y199552D02*
D03*
Y207552D02*
D03*
Y215552D02*
D03*
Y223552D02*
D03*
Y231552D02*
D03*
Y239552D02*
D03*
Y247552D02*
D03*
Y255552D02*
D03*
Y263552D02*
D03*
Y271552D02*
D03*
Y279552D02*
D03*
X341473Y127552D02*
D03*
Y135552D02*
D03*
Y143552D02*
D03*
Y151552D02*
D03*
Y159552D02*
D03*
Y167552D02*
D03*
Y175552D02*
D03*
Y183552D02*
D03*
Y191552D02*
D03*
Y199552D02*
D03*
Y207552D02*
D03*
Y215552D02*
D03*
Y223552D02*
D03*
Y231552D02*
D03*
Y239552D02*
D03*
Y247552D02*
D03*
Y255552D02*
D03*
Y263552D02*
D03*
Y271552D02*
D03*
Y279552D02*
D03*
X349473Y127552D02*
D03*
Y135552D02*
D03*
Y143552D02*
D03*
Y151552D02*
D03*
Y159552D02*
D03*
Y167552D02*
D03*
Y175552D02*
D03*
Y183552D02*
D03*
Y191552D02*
D03*
Y199552D02*
D03*
Y207552D02*
D03*
Y215552D02*
D03*
Y223552D02*
D03*
Y231552D02*
D03*
Y239552D02*
D03*
Y247552D02*
D03*
Y255552D02*
D03*
Y263552D02*
D03*
Y271552D02*
D03*
Y279552D02*
D03*
X357472Y127552D02*
D03*
Y135552D02*
D03*
Y143552D02*
D03*
Y151552D02*
D03*
Y159552D02*
D03*
Y167552D02*
D03*
Y175552D02*
D03*
Y183552D02*
D03*
Y191552D02*
D03*
Y199552D02*
D03*
Y207552D02*
D03*
Y215552D02*
D03*
Y223552D02*
D03*
Y231552D02*
D03*
Y239552D02*
D03*
Y247552D02*
D03*
Y255552D02*
D03*
Y263552D02*
D03*
Y271552D02*
D03*
Y279552D02*
D03*
X365472Y127552D02*
D03*
Y135552D02*
D03*
Y143552D02*
D03*
Y151552D02*
D03*
Y159552D02*
D03*
Y167552D02*
D03*
Y175552D02*
D03*
Y183552D02*
D03*
Y191552D02*
D03*
Y199552D02*
D03*
Y207552D02*
D03*
Y215552D02*
D03*
Y223552D02*
D03*
Y231552D02*
D03*
Y239552D02*
D03*
Y247552D02*
D03*
Y255552D02*
D03*
Y263552D02*
D03*
Y271552D02*
D03*
Y279552D02*
D03*
X373473Y127552D02*
D03*
Y135552D02*
D03*
Y143552D02*
D03*
Y151552D02*
D03*
Y159552D02*
D03*
Y167552D02*
D03*
Y175552D02*
D03*
Y183552D02*
D03*
Y191552D02*
D03*
Y199552D02*
D03*
Y207552D02*
D03*
Y215552D02*
D03*
Y223552D02*
D03*
Y231552D02*
D03*
Y239552D02*
D03*
Y247552D02*
D03*
Y255552D02*
D03*
Y263552D02*
D03*
Y271552D02*
D03*
Y279552D02*
D03*
X381473Y127552D02*
D03*
Y135552D02*
D03*
Y143552D02*
D03*
Y151552D02*
D03*
Y159552D02*
D03*
Y167552D02*
D03*
Y175552D02*
D03*
Y183552D02*
D03*
Y191552D02*
D03*
Y199552D02*
D03*
Y207552D02*
D03*
Y215552D02*
D03*
Y223552D02*
D03*
Y231552D02*
D03*
Y239552D02*
D03*
Y247552D02*
D03*
Y255552D02*
D03*
Y263552D02*
D03*
Y271552D02*
D03*
Y279552D02*
D03*
X389473Y127552D02*
D03*
Y135552D02*
D03*
Y143552D02*
D03*
Y151552D02*
D03*
Y159552D02*
D03*
Y167552D02*
D03*
Y175552D02*
D03*
Y183552D02*
D03*
Y191552D02*
D03*
Y199552D02*
D03*
Y207552D02*
D03*
Y215552D02*
D03*
Y223552D02*
D03*
Y231552D02*
D03*
Y239552D02*
D03*
Y247552D02*
D03*
Y255552D02*
D03*
Y263552D02*
D03*
Y271552D02*
D03*
Y279552D02*
D03*
D31*
X137452Y156937D02*
D03*
X117952D02*
D03*
X124452D02*
D03*
X130952D02*
D03*
Y204937D02*
D03*
X124452D02*
D03*
X117952D02*
D03*
X137452D02*
D03*
X137250Y228500D02*
D03*
X117750D02*
D03*
X124250D02*
D03*
X130750D02*
D03*
Y276500D02*
D03*
X124250D02*
D03*
X117750D02*
D03*
X137250D02*
D03*
D32*
X108702Y164687D02*
D03*
Y171187D02*
D03*
Y177687D02*
D03*
Y184187D02*
D03*
Y190687D02*
D03*
Y197187D02*
D03*
X146702Y197187D02*
D03*
Y190687D02*
D03*
Y184187D02*
D03*
Y177687D02*
D03*
Y171187D02*
D03*
Y164687D02*
D03*
X108500Y236250D02*
D03*
Y242750D02*
D03*
Y249250D02*
D03*
Y255750D02*
D03*
Y262250D02*
D03*
Y268750D02*
D03*
X146500Y268750D02*
D03*
Y262250D02*
D03*
Y255750D02*
D03*
Y249250D02*
D03*
Y242750D02*
D03*
Y236250D02*
D03*
D33*
X130452Y166437D02*
D03*
X130250Y238000D02*
D03*
D34*
X554442Y381513D02*
D03*
Y391513D02*
D03*
X572263Y391589D02*
D03*
Y381589D02*
D03*
D35*
X639316Y376571D02*
D03*
Y392571D02*
D03*
X589316Y376571D02*
D03*
Y392571D02*
D03*
D36*
X514525Y385541D02*
D03*
X505025D02*
D03*
X495525D02*
D03*
Y361541D02*
D03*
X514525D02*
D03*
X505025D02*
D03*
D37*
X672000Y281250D02*
D03*
Y250750D02*
D03*
X165131Y183852D02*
D03*
Y214352D02*
D03*
X165782Y255893D02*
D03*
Y286393D02*
D03*
D38*
X83816Y366639D02*
D03*
X13816D02*
D03*
D39*
X48816Y374789D02*
D03*
Y358489D02*
D03*
D40*
X284000Y359000D02*
D03*
X310000D02*
D03*
X336000D02*
D03*
X388000Y358000D02*
D03*
X362000D02*
D03*
D43*
X0Y0D02*
Y399996D01*
Y0D02*
X750004D01*
Y399996D01*
X0D02*
X750004D01*
D47*
X256500Y305500D02*
D03*
X679803Y62700D02*
D03*
D48*
X281900Y309500D02*
D03*
X307300Y305500D02*
D03*
X332700Y309500D02*
D03*
X358100Y305500D02*
D03*
X383500Y309500D02*
D03*
X19500Y215200D02*
D03*
X44900Y240600D02*
D03*
X19500D02*
D03*
X44900Y266000D02*
D03*
X19500D02*
D03*
X44900Y291400D02*
D03*
X19500D02*
D03*
X679803Y37300D02*
D03*
X654403Y62700D02*
D03*
Y37300D02*
D03*
X629003Y62700D02*
D03*
Y37300D02*
D03*
X603603Y62700D02*
D03*
Y37300D02*
D03*
X578203Y62700D02*
D03*
Y37300D02*
D03*
X552803Y62700D02*
D03*
Y37300D02*
D03*
X527403Y62700D02*
D03*
Y37300D02*
D03*
X502003Y62700D02*
D03*
Y37300D02*
D03*
X476603Y62700D02*
D03*
Y37300D02*
D03*
X451203Y62700D02*
D03*
Y37300D02*
D03*
X425803Y62700D02*
D03*
Y37300D02*
D03*
X400403Y62700D02*
D03*
Y37300D02*
D03*
X375003Y62700D02*
D03*
Y37300D02*
D03*
X349603Y62700D02*
D03*
Y37300D02*
D03*
X298803Y62700D02*
D03*
Y37300D02*
D03*
X273403Y62700D02*
D03*
Y37300D02*
D03*
X248003Y62700D02*
D03*
Y37300D02*
D03*
X222603Y62700D02*
D03*
Y37300D02*
D03*
X197203Y62700D02*
D03*
Y37300D02*
D03*
X171803Y62700D02*
D03*
Y37300D02*
D03*
X146403Y62700D02*
D03*
Y37300D02*
D03*
X121003Y62700D02*
D03*
Y37300D02*
D03*
X95603Y62700D02*
D03*
Y37300D02*
D03*
X70203Y62700D02*
D03*
Y37300D02*
D03*
X324203D02*
D03*
Y62700D02*
D03*
X730500Y164000D02*
D03*
Y189400D02*
D03*
Y214800D02*
D03*
Y240200D02*
D03*
Y265600D02*
D03*
Y291000D02*
D03*
X705100Y164000D02*
D03*
Y189400D02*
D03*
Y214800D02*
D03*
Y240200D02*
D03*
Y265600D02*
D03*
D49*
X44900Y215200D02*
D03*
X705100Y291000D02*
D03*
D51*
X705003Y361400D02*
D03*
X44503Y145200D02*
D03*
D62*
X736000Y322500D02*
G03*
X736000Y322500I-1000J0D01*
G01*
X731000Y20000D02*
G03*
X731000Y20000I-1000J0D01*
G01*
X21000D02*
G03*
X21000Y20000I-1000J0D01*
G01*
M02*
