%FSLAX44Y44*%
%MOMM*%
G71*
G01*
G75*
G04 Layer_Physical_Order=1*
G04 Layer_Color=255*
%ADD10C,0.1500*%
%ADD11C,1.0000*%
%ADD12O,1.0500X2.2000*%
G04:AMPARAMS|DCode=13|XSize=0.6mm|YSize=0.5mm|CornerRadius=0.05mm|HoleSize=0mm|Usage=FLASHONLY|Rotation=0.000|XOffset=0mm|YOffset=0mm|HoleType=Round|Shape=RoundedRectangle|*
%AMROUNDEDRECTD13*
21,1,0.6000,0.4000,0,0,0.0*
21,1,0.5000,0.5000,0,0,0.0*
1,1,0.1000,0.2500,-0.2000*
1,1,0.1000,-0.2500,-0.2000*
1,1,0.1000,-0.2500,0.2000*
1,1,0.1000,0.2500,0.2000*
%
%ADD13ROUNDEDRECTD13*%
G04:AMPARAMS|DCode=14|XSize=0.45mm|YSize=0.65mm|CornerRadius=0.1125mm|HoleSize=0mm|Usage=FLASHONLY|Rotation=180.000|XOffset=0mm|YOffset=0mm|HoleType=Round|Shape=RoundedRectangle|*
%AMROUNDEDRECTD14*
21,1,0.4500,0.4250,0,0,180.0*
21,1,0.2250,0.6500,0,0,180.0*
1,1,0.2250,-0.1125,0.2125*
1,1,0.2250,0.1125,0.2125*
1,1,0.2250,0.1125,-0.2125*
1,1,0.2250,-0.1125,-0.2125*
%
%ADD14ROUNDEDRECTD14*%
%ADD15O,0.3000X0.6500*%
G04:AMPARAMS|DCode=16|XSize=0.4mm|YSize=0.37mm|CornerRadius=0.037mm|HoleSize=0mm|Usage=FLASHONLY|Rotation=90.000|XOffset=0mm|YOffset=0mm|HoleType=Round|Shape=RoundedRectangle|*
%AMROUNDEDRECTD16*
21,1,0.4000,0.2960,0,0,90.0*
21,1,0.3260,0.3700,0,0,90.0*
1,1,0.0740,0.1480,0.1630*
1,1,0.0740,0.1480,-0.1630*
1,1,0.0740,-0.1480,-0.1630*
1,1,0.0740,-0.1480,0.1630*
%
%ADD16ROUNDEDRECTD16*%
G04:AMPARAMS|DCode=17|XSize=0.6mm|YSize=0.5mm|CornerRadius=0.05mm|HoleSize=0mm|Usage=FLASHONLY|Rotation=270.000|XOffset=0mm|YOffset=0mm|HoleType=Round|Shape=RoundedRectangle|*
%AMROUNDEDRECTD17*
21,1,0.6000,0.4000,0,0,270.0*
21,1,0.5000,0.5000,0,0,270.0*
1,1,0.1000,-0.2000,-0.2500*
1,1,0.1000,-0.2000,0.2500*
1,1,0.1000,0.2000,0.2500*
1,1,0.1000,0.2000,-0.2500*
%
%ADD17ROUNDEDRECTD17*%
G04:AMPARAMS|DCode=18|XSize=0.4mm|YSize=0.37mm|CornerRadius=0.037mm|HoleSize=0mm|Usage=FLASHONLY|Rotation=180.000|XOffset=0mm|YOffset=0mm|HoleType=Round|Shape=RoundedRectangle|*
%AMROUNDEDRECTD18*
21,1,0.4000,0.2960,0,0,180.0*
21,1,0.3260,0.3700,0,0,180.0*
1,1,0.0740,-0.1630,0.1480*
1,1,0.0740,0.1630,0.1480*
1,1,0.0740,0.1630,-0.1480*
1,1,0.0740,-0.1630,-0.1480*
%
%ADD18ROUNDEDRECTD18*%
G04:AMPARAMS|DCode=19|XSize=0.5mm|YSize=0.62mm|CornerRadius=0.1mm|HoleSize=0mm|Usage=FLASHONLY|Rotation=90.000|XOffset=0mm|YOffset=0mm|HoleType=Round|Shape=RoundedRectangle|*
%AMROUNDEDRECTD19*
21,1,0.5000,0.4200,0,0,90.0*
21,1,0.3000,0.6200,0,0,90.0*
1,1,0.2000,0.2100,0.1500*
1,1,0.2000,0.2100,-0.1500*
1,1,0.2000,-0.2100,-0.1500*
1,1,0.2000,-0.2100,0.1500*
%
%ADD19ROUNDEDRECTD19*%
G04:AMPARAMS|DCode=20|XSize=0.5mm|YSize=0.62mm|CornerRadius=0.1mm|HoleSize=0mm|Usage=FLASHONLY|Rotation=180.000|XOffset=0mm|YOffset=0mm|HoleType=Round|Shape=RoundedRectangle|*
%AMROUNDEDRECTD20*
21,1,0.5000,0.4200,0,0,180.0*
21,1,0.3000,0.6200,0,0,180.0*
1,1,0.2000,-0.1500,0.2100*
1,1,0.2000,0.1500,0.2100*
1,1,0.2000,0.1500,-0.2100*
1,1,0.2000,-0.1500,-0.2100*
%
%ADD20ROUNDEDRECTD20*%
G04:AMPARAMS|DCode=21|XSize=1mm|YSize=0.7mm|CornerRadius=0.1155mm|HoleSize=0mm|Usage=FLASHONLY|Rotation=90.000|XOffset=0mm|YOffset=0mm|HoleType=Round|Shape=RoundedRectangle|*
%AMROUNDEDRECTD21*
21,1,1.0000,0.4690,0,0,90.0*
21,1,0.7690,0.7000,0,0,90.0*
1,1,0.2310,0.2345,0.3845*
1,1,0.2310,0.2345,-0.3845*
1,1,0.2310,-0.2345,-0.3845*
1,1,0.2310,-0.2345,0.3845*
%
%ADD21ROUNDEDRECTD21*%
G04:AMPARAMS|DCode=22|XSize=1mm|YSize=0.7mm|CornerRadius=0.1155mm|HoleSize=0mm|Usage=FLASHONLY|Rotation=0.000|XOffset=0mm|YOffset=0mm|HoleType=Round|Shape=RoundedRectangle|*
%AMROUNDEDRECTD22*
21,1,1.0000,0.4690,0,0,0.0*
21,1,0.7690,0.7000,0,0,0.0*
1,1,0.2310,0.3845,-0.2345*
1,1,0.2310,-0.3845,-0.2345*
1,1,0.2310,-0.3845,0.2345*
1,1,0.2310,0.3845,0.2345*
%
%ADD22ROUNDEDRECTD22*%
G04:AMPARAMS|DCode=23|XSize=1.1mm|YSize=1.1mm|CornerRadius=0.1815mm|HoleSize=0mm|Usage=FLASHONLY|Rotation=90.000|XOffset=0mm|YOffset=0mm|HoleType=Round|Shape=RoundedRectangle|*
%AMROUNDEDRECTD23*
21,1,1.1000,0.7370,0,0,90.0*
21,1,0.7370,1.1000,0,0,90.0*
1,1,0.3630,0.3685,0.3685*
1,1,0.3630,0.3685,-0.3685*
1,1,0.3630,-0.3685,-0.3685*
1,1,0.3630,-0.3685,0.3685*
%
%ADD23ROUNDEDRECTD23*%
%ADD24O,1.0500X0.6000*%
G04:AMPARAMS|DCode=25|XSize=0.8mm|YSize=1.5mm|CornerRadius=0.2mm|HoleSize=0mm|Usage=FLASHONLY|Rotation=0.000|XOffset=0mm|YOffset=0mm|HoleType=Round|Shape=RoundedRectangle|*
%AMROUNDEDRECTD25*
21,1,0.8000,1.1000,0,0,0.0*
21,1,0.4000,1.5000,0,0,0.0*
1,1,0.4000,0.2000,-0.5500*
1,1,0.4000,-0.2000,-0.5500*
1,1,0.4000,-0.2000,0.5500*
1,1,0.4000,0.2000,0.5500*
%
%ADD25ROUNDEDRECTD25*%
G04:AMPARAMS|DCode=26|XSize=1.45mm|YSize=0.9mm|CornerRadius=0.225mm|HoleSize=0mm|Usage=FLASHONLY|Rotation=0.000|XOffset=0mm|YOffset=0mm|HoleType=Round|Shape=RoundedRectangle|*
%AMROUNDEDRECTD26*
21,1,1.4500,0.4500,0,0,0.0*
21,1,1.0000,0.9000,0,0,0.0*
1,1,0.4500,0.5000,-0.2250*
1,1,0.4500,-0.5000,-0.2250*
1,1,0.4500,-0.5000,0.2250*
1,1,0.4500,0.5000,0.2250*
%
%ADD26ROUNDEDRECTD26*%
G04:AMPARAMS|DCode=27|XSize=1.45mm|YSize=2mm|CornerRadius=0.3625mm|HoleSize=0mm|Usage=FLASHONLY|Rotation=0.000|XOffset=0mm|YOffset=0mm|HoleType=Round|Shape=RoundedRectangle|*
%AMROUNDEDRECTD27*
21,1,1.4500,1.2750,0,0,0.0*
21,1,0.7250,2.0000,0,0,0.0*
1,1,0.7250,0.3625,-0.6375*
1,1,0.7250,-0.3625,-0.6375*
1,1,0.7250,-0.3625,0.6375*
1,1,0.7250,0.3625,0.6375*
%
%ADD27ROUNDEDRECTD27*%
%ADD28O,0.7600X1.6000*%
%ADD29C,0.3500*%
%ADD30C,0.4000*%
G04:AMPARAMS|DCode=31|XSize=0.3mm|YSize=0.6mm|CornerRadius=0.0495mm|HoleSize=0mm|Usage=FLASHONLY|Rotation=0.000|XOffset=0mm|YOffset=0mm|HoleType=Round|Shape=RoundedRectangle|*
%AMROUNDEDRECTD31*
21,1,0.3000,0.5010,0,0,0.0*
21,1,0.2010,0.6000,0,0,0.0*
1,1,0.0990,0.1005,-0.2505*
1,1,0.0990,-0.1005,-0.2505*
1,1,0.0990,-0.1005,0.2505*
1,1,0.0990,0.1005,0.2505*
%
%ADD31ROUNDEDRECTD31*%
G04:AMPARAMS|DCode=32|XSize=0.3mm|YSize=0.6mm|CornerRadius=0.0495mm|HoleSize=0mm|Usage=FLASHONLY|Rotation=270.000|XOffset=0mm|YOffset=0mm|HoleType=Round|Shape=RoundedRectangle|*
%AMROUNDEDRECTD32*
21,1,0.3000,0.5010,0,0,270.0*
21,1,0.2010,0.6000,0,0,270.0*
1,1,0.0990,-0.2505,-0.1005*
1,1,0.0990,-0.2505,0.1005*
1,1,0.0990,0.2505,0.1005*
1,1,0.0990,0.2505,-0.1005*
%
%ADD32ROUNDEDRECTD32*%
%ADD33R,2.2500X0.9000*%
%ADD34R,0.7400X0.5400*%
%ADD35R,0.9000X1.0000*%
%ADD36R,0.6500X1.2000*%
G04:AMPARAMS|DCode=37|XSize=1.82mm|YSize=1.07mm|CornerRadius=0.107mm|HoleSize=0mm|Usage=FLASHONLY|Rotation=180.000|XOffset=0mm|YOffset=0mm|HoleType=Round|Shape=RoundedRectangle|*
%AMROUNDEDRECTD37*
21,1,1.8200,0.8560,0,0,180.0*
21,1,1.6060,1.0700,0,0,180.0*
1,1,0.2140,-0.8030,0.4280*
1,1,0.2140,0.8030,0.4280*
1,1,0.2140,0.8030,-0.4280*
1,1,0.2140,-0.8030,-0.4280*
%
%ADD37ROUNDEDRECTD37*%
%ADD38R,1.0000X2.0000*%
%ADD39R,2.8000X0.8000*%
%ADD40C,2.0000*%
%ADD41C,0.2000*%
%ADD42C,0.3000*%
%ADD43C,0.1000*%
%ADD44C,0.3810*%
%ADD45C,0.5000*%
%ADD46C,0.4000*%
%ADD47R,1.5000X1.5000*%
%ADD48C,1.5000*%
%ADD49R,1.5000X1.5000*%
%ADD50C,0.8000*%
%ADD51C,6.0000*%
%ADD52C,0.5000*%
G36*
X224607Y249557D02*
Y220607D01*
X208220Y204220D01*
X165254Y204220D01*
X150254Y189220D01*
X146844D01*
X146205Y191490D01*
Y200732D01*
X142287Y204650D01*
X137867Y204600D01*
X136212Y206255D01*
X135947D01*
Y208249D01*
X138902Y211204D01*
X146706D01*
X156109Y220607D01*
X198607Y220607D01*
X209000Y231000D01*
Y251000D01*
X222629D01*
X224607Y249557D01*
D02*
G37*
G36*
X155170Y238298D02*
X174772D01*
X176963Y236107D01*
Y231666D01*
X173706Y228409D01*
X154993D01*
X146544Y219960D01*
X134566D01*
Y221477D01*
X136778Y223689D01*
X137407Y228344D01*
X144060D01*
X146500Y230784D01*
Y242750D01*
X147997Y244247D01*
X149221D01*
X155170Y238298D01*
D02*
G37*
G36*
X177178Y194443D02*
Y180205D01*
X175443Y178470D01*
X154690D01*
X150466Y182694D01*
X147258D01*
X146389Y185678D01*
X149993D01*
X161294Y196979D01*
X174642D01*
X177178Y194443D01*
D02*
G37*
G36*
X155465Y166630D02*
X168742D01*
X170112Y165260D01*
Y162264D01*
X158386Y150538D01*
X120153D01*
X116575Y154116D01*
X117101Y158131D01*
X144269D01*
X145795Y159657D01*
Y171612D01*
X146856Y172674D01*
X149420D01*
X155465Y166630D01*
D02*
G37*
G36*
X154085Y176867D02*
X175117D01*
X176980Y175004D01*
Y171422D01*
X174758Y169200D01*
X155781D01*
X148462Y176519D01*
X146833Y179225D01*
X151727D01*
X154085Y176867D01*
D02*
G37*
G36*
X165000Y310000D02*
X2500D01*
Y329535D01*
X100000Y329535D01*
X100000Y360000D01*
X127500D01*
Y321002D01*
X145000D01*
Y360000D01*
X165000D01*
Y310000D01*
D02*
G37*
G36*
Y372500D02*
X100000D01*
Y397500D01*
X165000D01*
Y372500D01*
D02*
G37*
G36*
X189180Y288528D02*
Y280378D01*
X184585Y275783D01*
X165053D01*
X150052Y260783D01*
X146643D01*
X146004Y263053D01*
Y272295D01*
X142086Y276213D01*
X137716D01*
X137666Y276163D01*
X136011Y277818D01*
X135745D01*
Y279812D01*
X138700Y282767D01*
X146504D01*
X155907Y292170D01*
X185539D01*
X189180Y288528D01*
D02*
G37*
G36*
X153883Y248430D02*
X174915D01*
X176778Y246567D01*
Y242985D01*
X174556Y240763D01*
X155579D01*
X148260Y248082D01*
X146631Y250788D01*
X151525D01*
X153883Y248430D01*
D02*
G37*
G36*
X176976Y266005D02*
Y251768D01*
X175241Y250033D01*
X154488D01*
X150264Y254257D01*
X147056D01*
X146188Y257241D01*
X149791D01*
X161092Y268542D01*
X174440D01*
X176976Y266005D01*
D02*
G37*
D10*
X745000Y322500D02*
G03*
X745000Y322500I-10000J0D01*
G01*
X740000Y20000D02*
G03*
X740000Y20000I-10000J0D01*
G01*
X30000D02*
G03*
X30000Y20000I-10000J0D01*
G01*
X305541Y251567D02*
X311025D01*
X297458D02*
X305541D01*
X329438Y262078D02*
Y267269D01*
Y262078D02*
X333473Y258043D01*
Y255552D02*
Y258043D01*
X297722Y275802D02*
X297973Y276052D01*
X296973Y252052D02*
X297458Y251567D01*
X311025D02*
X315039Y247552D01*
X317472D01*
X285473Y231552D02*
X289223Y235302D01*
X297722D01*
X298071Y234954D01*
X296874Y210954D02*
X297459Y211539D01*
X305459D01*
X309473Y215552D01*
X305459Y203539D02*
Y211539D01*
X316992Y203539D02*
X317472Y204019D01*
X305459Y203539D02*
X316992D01*
X301472Y199552D02*
X305459Y203539D01*
X305744Y219581D02*
X313501D01*
X395066Y243532D02*
X395485Y243951D01*
X387792Y243532D02*
X395066D01*
X383812Y239552D02*
X387792Y243532D01*
X381473Y239552D02*
X383812D01*
X377442Y261879D02*
Y275522D01*
X373473Y257910D02*
X377442Y261879D01*
X373473Y255552D02*
Y257910D01*
X360973Y267052D02*
X361431Y266594D01*
Y261704D02*
Y266594D01*
X359280Y259554D02*
X361431Y261704D01*
X355271Y259554D02*
X359280D01*
X353485Y257768D02*
X355271Y259554D01*
X353485Y253977D02*
Y257768D01*
Y253977D02*
X357472Y249990D01*
Y247552D02*
Y249990D01*
X281472Y243552D02*
X289473D01*
X329396Y235475D02*
X335117D01*
X339041Y231552D01*
X341473D01*
X273403Y251622D02*
Y258353D01*
X272202Y259554D02*
X273403Y258353D01*
X257374Y259554D02*
X272202D01*
X257374D02*
Y275454D01*
X313344Y235524D02*
X321601D01*
X385505Y155520D02*
X398192D01*
D11*
X135900Y349252D02*
D03*
X735000Y322500D02*
D03*
X730000Y20000D02*
D03*
X20000D02*
D03*
D12*
X150650Y334002D02*
D03*
X121150D02*
D03*
D13*
X465000Y142827D02*
D03*
Y133827D02*
D03*
X158676Y162741D02*
D03*
Y171741D02*
D03*
X564053Y362836D02*
D03*
Y371836D02*
D03*
X573584Y362836D02*
D03*
Y371836D02*
D03*
X554567Y362758D02*
D03*
Y371758D02*
D03*
X409384Y231349D02*
D03*
Y240349D02*
D03*
X158846Y235144D02*
D03*
Y244144D02*
D03*
X95000Y170500D02*
D03*
Y179500D02*
D03*
X97658Y154931D02*
D03*
Y163931D02*
D03*
X409135Y312811D02*
D03*
Y303811D02*
D03*
D14*
X714250Y127500D02*
D03*
X697750D02*
D03*
X714250Y116500D02*
D03*
X697750D02*
D03*
X687250Y226500D02*
D03*
X670750D02*
D03*
X687250Y215500D02*
D03*
X670750D02*
D03*
D15*
X708500Y127500D02*
D03*
X703500D02*
D03*
X708500Y116500D02*
D03*
X703500D02*
D03*
X681500Y226500D02*
D03*
X676500D02*
D03*
X681500Y215500D02*
D03*
X676500D02*
D03*
D16*
X594850Y362000D02*
D03*
X589150D02*
D03*
X171850Y304000D02*
D03*
X166150D02*
D03*
X121997Y366698D02*
D03*
X127697D02*
D03*
X451456Y246171D02*
D03*
X457156D02*
D03*
X441783Y245919D02*
D03*
X436083D02*
D03*
X588663Y172478D02*
D03*
X582963D02*
D03*
X597262Y172542D02*
D03*
X602962D02*
D03*
X549673Y173901D02*
D03*
X543973D02*
D03*
X413324Y150493D02*
D03*
X407624D02*
D03*
X472133Y246233D02*
D03*
X466433D02*
D03*
X427394Y245919D02*
D03*
X421694D02*
D03*
D17*
X501500Y334000D02*
D03*
X492500D02*
D03*
D18*
X135900Y366700D02*
D03*
Y361000D02*
D03*
X510193Y283253D02*
D03*
Y277553D02*
D03*
X410418Y333050D02*
D03*
Y327350D02*
D03*
X545608Y368447D02*
D03*
Y362747D02*
D03*
X504897Y342579D02*
D03*
Y348279D02*
D03*
X409539Y202796D02*
D03*
Y208496D02*
D03*
X409421Y294404D02*
D03*
Y288704D02*
D03*
X409418Y266648D02*
D03*
Y272348D02*
D03*
X409554Y222644D02*
D03*
Y216944D02*
D03*
X511474Y198097D02*
D03*
Y203798D02*
D03*
X455000Y142850D02*
D03*
Y137150D02*
D03*
X513318Y186478D02*
D03*
Y180778D02*
D03*
X514131Y267688D02*
D03*
Y261988D02*
D03*
X573525Y167979D02*
D03*
Y173680D02*
D03*
X401000Y332850D02*
D03*
Y327150D02*
D03*
D19*
X113598Y376702D02*
D03*
Y366702D02*
D03*
D20*
X94398Y366698D02*
D03*
X104398D02*
D03*
D21*
X183000Y323000D02*
D03*
X192000D02*
D03*
X201000D02*
D03*
X210000D02*
D03*
X219000D02*
D03*
X228000D02*
D03*
X226000Y386500D02*
D03*
X217000D02*
D03*
X208000D02*
D03*
X199000D02*
D03*
X190000D02*
D03*
X181000D02*
D03*
D22*
X173250Y377000D02*
D03*
Y368000D02*
D03*
Y359000D02*
D03*
Y350000D02*
D03*
Y341000D02*
D03*
Y332000D02*
D03*
X236500Y378000D02*
D03*
Y369000D02*
D03*
Y360000D02*
D03*
Y351000D02*
D03*
Y342000D02*
D03*
Y333000D02*
D03*
D23*
X205000Y339000D02*
D03*
X189000Y355000D02*
D03*
X221000D02*
D03*
X205000Y371000D02*
D03*
Y355000D02*
D03*
D24*
X477660Y144626D02*
D03*
Y125626D02*
D03*
X500660Y135126D02*
D03*
D25*
X540030Y247312D02*
D03*
X551030D02*
D03*
X562030D02*
D03*
X573031D02*
D03*
X584030D02*
D03*
X595030D02*
D03*
X606030D02*
D03*
X617030D02*
D03*
D26*
X653780Y204312D02*
D03*
X516280Y321312D02*
D03*
D27*
Y304312D02*
D03*
X653780D02*
D03*
Y221312D02*
D03*
X516280D02*
D03*
D28*
X431660Y332844D02*
D03*
X444360D02*
D03*
X457060D02*
D03*
X469760D02*
D03*
X431660Y383644D02*
D03*
X444360D02*
D03*
X457060D02*
D03*
X469760D02*
D03*
D29*
X440523Y185774D02*
D03*
Y195774D02*
D03*
Y205774D02*
D03*
Y215774D02*
D03*
Y225774D02*
D03*
X450523Y185774D02*
D03*
Y195774D02*
D03*
Y205774D02*
D03*
Y215774D02*
D03*
Y225774D02*
D03*
X460523Y185774D02*
D03*
Y195774D02*
D03*
Y205774D02*
D03*
Y215774D02*
D03*
Y225774D02*
D03*
X470523Y185774D02*
D03*
Y195774D02*
D03*
Y205774D02*
D03*
Y215774D02*
D03*
Y225774D02*
D03*
X480523Y185774D02*
D03*
Y195774D02*
D03*
Y205774D02*
D03*
Y215774D02*
D03*
X440423Y266688D02*
D03*
Y276688D02*
D03*
Y286688D02*
D03*
Y296688D02*
D03*
Y306688D02*
D03*
X450423Y266688D02*
D03*
Y276688D02*
D03*
Y286688D02*
D03*
Y296688D02*
D03*
Y306688D02*
D03*
X460423Y266688D02*
D03*
Y276688D02*
D03*
Y286688D02*
D03*
Y296688D02*
D03*
Y306688D02*
D03*
X470423Y266688D02*
D03*
Y276688D02*
D03*
Y286688D02*
D03*
Y296688D02*
D03*
Y306688D02*
D03*
X480423Y266688D02*
D03*
Y276688D02*
D03*
Y286688D02*
D03*
Y296688D02*
D03*
D30*
X237472Y127552D02*
D03*
Y135552D02*
D03*
Y143552D02*
D03*
Y151552D02*
D03*
Y159552D02*
D03*
Y167552D02*
D03*
Y175552D02*
D03*
Y183552D02*
D03*
Y191552D02*
D03*
Y199552D02*
D03*
Y207552D02*
D03*
Y215552D02*
D03*
Y223552D02*
D03*
Y231552D02*
D03*
Y239552D02*
D03*
Y247552D02*
D03*
Y255552D02*
D03*
Y263552D02*
D03*
Y271552D02*
D03*
Y279552D02*
D03*
X245473Y127552D02*
D03*
Y135552D02*
D03*
Y143552D02*
D03*
Y151552D02*
D03*
Y159552D02*
D03*
Y167552D02*
D03*
Y175552D02*
D03*
Y183552D02*
D03*
Y191552D02*
D03*
Y199552D02*
D03*
Y207552D02*
D03*
Y215552D02*
D03*
Y223552D02*
D03*
Y231552D02*
D03*
Y239552D02*
D03*
Y247552D02*
D03*
Y255552D02*
D03*
Y263552D02*
D03*
Y271552D02*
D03*
Y279552D02*
D03*
X253472Y127552D02*
D03*
Y135552D02*
D03*
Y143552D02*
D03*
Y151552D02*
D03*
Y159552D02*
D03*
Y167552D02*
D03*
Y175552D02*
D03*
Y183552D02*
D03*
Y191552D02*
D03*
Y199552D02*
D03*
Y207552D02*
D03*
Y215552D02*
D03*
Y223552D02*
D03*
Y231552D02*
D03*
Y239552D02*
D03*
Y247552D02*
D03*
Y255552D02*
D03*
Y263552D02*
D03*
Y271552D02*
D03*
Y279552D02*
D03*
X261472Y127552D02*
D03*
Y135552D02*
D03*
Y143552D02*
D03*
Y151552D02*
D03*
Y159552D02*
D03*
Y167552D02*
D03*
Y175552D02*
D03*
Y183552D02*
D03*
Y191552D02*
D03*
Y199552D02*
D03*
Y207552D02*
D03*
Y215552D02*
D03*
Y223552D02*
D03*
Y231552D02*
D03*
Y239552D02*
D03*
Y247552D02*
D03*
Y255552D02*
D03*
Y263552D02*
D03*
Y271552D02*
D03*
Y279552D02*
D03*
X269473Y127552D02*
D03*
Y135552D02*
D03*
Y143552D02*
D03*
Y151552D02*
D03*
Y159552D02*
D03*
Y167552D02*
D03*
Y175552D02*
D03*
Y183552D02*
D03*
Y191552D02*
D03*
Y199552D02*
D03*
Y207552D02*
D03*
Y215552D02*
D03*
Y223552D02*
D03*
Y231552D02*
D03*
Y239552D02*
D03*
Y247552D02*
D03*
Y255552D02*
D03*
Y263552D02*
D03*
Y271552D02*
D03*
Y279552D02*
D03*
X277472Y127552D02*
D03*
Y135552D02*
D03*
Y143552D02*
D03*
Y151552D02*
D03*
Y159552D02*
D03*
Y167552D02*
D03*
Y175552D02*
D03*
Y183552D02*
D03*
Y191552D02*
D03*
Y199552D02*
D03*
Y207552D02*
D03*
Y215552D02*
D03*
Y223552D02*
D03*
Y231552D02*
D03*
Y239552D02*
D03*
Y247552D02*
D03*
Y255552D02*
D03*
Y263552D02*
D03*
Y271552D02*
D03*
Y279552D02*
D03*
X285473Y127552D02*
D03*
Y135552D02*
D03*
Y143552D02*
D03*
Y151552D02*
D03*
Y159552D02*
D03*
Y167552D02*
D03*
Y175552D02*
D03*
Y183552D02*
D03*
Y191552D02*
D03*
Y199552D02*
D03*
Y207552D02*
D03*
Y215552D02*
D03*
Y223552D02*
D03*
Y231552D02*
D03*
Y239552D02*
D03*
Y247552D02*
D03*
Y255552D02*
D03*
Y263552D02*
D03*
Y271552D02*
D03*
Y279552D02*
D03*
X293472Y127552D02*
D03*
Y135552D02*
D03*
Y143552D02*
D03*
Y151552D02*
D03*
Y159552D02*
D03*
Y167552D02*
D03*
Y175552D02*
D03*
Y183552D02*
D03*
Y191552D02*
D03*
Y199552D02*
D03*
Y207552D02*
D03*
Y215552D02*
D03*
Y223552D02*
D03*
Y231552D02*
D03*
Y239552D02*
D03*
Y247552D02*
D03*
Y255552D02*
D03*
Y263552D02*
D03*
Y271552D02*
D03*
Y279552D02*
D03*
X301472Y127552D02*
D03*
Y135552D02*
D03*
Y143552D02*
D03*
Y151552D02*
D03*
Y159552D02*
D03*
Y167552D02*
D03*
Y175552D02*
D03*
Y183552D02*
D03*
Y191552D02*
D03*
Y199552D02*
D03*
Y207552D02*
D03*
Y215552D02*
D03*
Y223552D02*
D03*
Y231552D02*
D03*
Y239552D02*
D03*
Y247552D02*
D03*
Y255552D02*
D03*
Y263552D02*
D03*
Y271552D02*
D03*
Y279552D02*
D03*
X309473Y127552D02*
D03*
Y135552D02*
D03*
Y143552D02*
D03*
Y151552D02*
D03*
Y159552D02*
D03*
Y167552D02*
D03*
Y175552D02*
D03*
Y183552D02*
D03*
Y191552D02*
D03*
Y199552D02*
D03*
Y207552D02*
D03*
Y215552D02*
D03*
Y223552D02*
D03*
Y231552D02*
D03*
Y239552D02*
D03*
Y247552D02*
D03*
Y255552D02*
D03*
Y263552D02*
D03*
Y271552D02*
D03*
Y279552D02*
D03*
X317472Y127552D02*
D03*
Y135552D02*
D03*
Y143552D02*
D03*
Y151552D02*
D03*
Y159552D02*
D03*
Y167552D02*
D03*
Y175552D02*
D03*
Y183552D02*
D03*
Y191552D02*
D03*
Y199552D02*
D03*
Y207552D02*
D03*
Y215552D02*
D03*
Y223552D02*
D03*
Y231552D02*
D03*
Y239552D02*
D03*
Y247552D02*
D03*
Y255552D02*
D03*
Y263552D02*
D03*
Y271552D02*
D03*
Y279552D02*
D03*
X325472Y127552D02*
D03*
Y135552D02*
D03*
Y143552D02*
D03*
Y151552D02*
D03*
Y159552D02*
D03*
Y167552D02*
D03*
Y175552D02*
D03*
Y183552D02*
D03*
Y191552D02*
D03*
Y199552D02*
D03*
Y207552D02*
D03*
Y215552D02*
D03*
Y223552D02*
D03*
Y231552D02*
D03*
Y239552D02*
D03*
Y247552D02*
D03*
Y255552D02*
D03*
Y263552D02*
D03*
Y271552D02*
D03*
Y279552D02*
D03*
X333473Y127552D02*
D03*
Y135552D02*
D03*
Y143552D02*
D03*
Y151552D02*
D03*
Y159552D02*
D03*
Y167552D02*
D03*
Y175552D02*
D03*
Y183552D02*
D03*
Y191552D02*
D03*
Y199552D02*
D03*
Y207552D02*
D03*
Y215552D02*
D03*
Y223552D02*
D03*
Y231552D02*
D03*
Y239552D02*
D03*
Y247552D02*
D03*
Y255552D02*
D03*
Y263552D02*
D03*
Y271552D02*
D03*
Y279552D02*
D03*
X341473Y127552D02*
D03*
Y135552D02*
D03*
Y143552D02*
D03*
Y151552D02*
D03*
Y159552D02*
D03*
Y167552D02*
D03*
Y175552D02*
D03*
Y183552D02*
D03*
Y191552D02*
D03*
Y199552D02*
D03*
Y207552D02*
D03*
Y215552D02*
D03*
Y223552D02*
D03*
Y231552D02*
D03*
Y239552D02*
D03*
Y247552D02*
D03*
Y255552D02*
D03*
Y263552D02*
D03*
Y271552D02*
D03*
Y279552D02*
D03*
X349473Y127552D02*
D03*
Y135552D02*
D03*
Y143552D02*
D03*
Y151552D02*
D03*
Y159552D02*
D03*
Y167552D02*
D03*
Y175552D02*
D03*
Y183552D02*
D03*
Y191552D02*
D03*
Y199552D02*
D03*
Y207552D02*
D03*
Y215552D02*
D03*
Y223552D02*
D03*
Y231552D02*
D03*
Y239552D02*
D03*
Y247552D02*
D03*
Y255552D02*
D03*
Y263552D02*
D03*
Y271552D02*
D03*
Y279552D02*
D03*
X357472Y127552D02*
D03*
Y135552D02*
D03*
Y143552D02*
D03*
Y151552D02*
D03*
Y159552D02*
D03*
Y167552D02*
D03*
Y175552D02*
D03*
Y183552D02*
D03*
Y191552D02*
D03*
Y199552D02*
D03*
Y207552D02*
D03*
Y215552D02*
D03*
Y223552D02*
D03*
Y231552D02*
D03*
Y239552D02*
D03*
Y247552D02*
D03*
Y255552D02*
D03*
Y263552D02*
D03*
Y271552D02*
D03*
Y279552D02*
D03*
X365472Y127552D02*
D03*
Y135552D02*
D03*
Y143552D02*
D03*
Y151552D02*
D03*
Y159552D02*
D03*
Y167552D02*
D03*
Y175552D02*
D03*
Y183552D02*
D03*
Y191552D02*
D03*
Y199552D02*
D03*
Y207552D02*
D03*
Y215552D02*
D03*
Y223552D02*
D03*
Y231552D02*
D03*
Y239552D02*
D03*
Y247552D02*
D03*
Y255552D02*
D03*
Y263552D02*
D03*
Y271552D02*
D03*
Y279552D02*
D03*
X373473Y127552D02*
D03*
Y135552D02*
D03*
Y143552D02*
D03*
Y151552D02*
D03*
Y159552D02*
D03*
Y167552D02*
D03*
Y175552D02*
D03*
Y183552D02*
D03*
Y191552D02*
D03*
Y199552D02*
D03*
Y207552D02*
D03*
Y215552D02*
D03*
Y223552D02*
D03*
Y231552D02*
D03*
Y239552D02*
D03*
Y247552D02*
D03*
Y255552D02*
D03*
Y263552D02*
D03*
Y271552D02*
D03*
Y279552D02*
D03*
X381473Y127552D02*
D03*
Y135552D02*
D03*
Y143552D02*
D03*
Y151552D02*
D03*
Y159552D02*
D03*
Y167552D02*
D03*
Y175552D02*
D03*
Y183552D02*
D03*
Y191552D02*
D03*
Y199552D02*
D03*
Y207552D02*
D03*
Y215552D02*
D03*
Y223552D02*
D03*
Y231552D02*
D03*
Y239552D02*
D03*
Y247552D02*
D03*
Y255552D02*
D03*
Y263552D02*
D03*
Y271552D02*
D03*
Y279552D02*
D03*
X389473Y127552D02*
D03*
Y135552D02*
D03*
Y143552D02*
D03*
Y151552D02*
D03*
Y159552D02*
D03*
Y167552D02*
D03*
Y175552D02*
D03*
Y183552D02*
D03*
Y191552D02*
D03*
Y199552D02*
D03*
Y207552D02*
D03*
Y215552D02*
D03*
Y223552D02*
D03*
Y231552D02*
D03*
Y239552D02*
D03*
Y247552D02*
D03*
Y255552D02*
D03*
Y263552D02*
D03*
Y271552D02*
D03*
Y279552D02*
D03*
D31*
X137452Y156937D02*
D03*
X117952D02*
D03*
X124452D02*
D03*
X130952D02*
D03*
Y204937D02*
D03*
X124452D02*
D03*
X117952D02*
D03*
X137452D02*
D03*
X137250Y228500D02*
D03*
X117750D02*
D03*
X124250D02*
D03*
X130750D02*
D03*
Y276500D02*
D03*
X124250D02*
D03*
X117750D02*
D03*
X137250D02*
D03*
D32*
X108702Y164687D02*
D03*
Y171187D02*
D03*
Y177687D02*
D03*
Y184187D02*
D03*
Y190687D02*
D03*
Y197187D02*
D03*
X146702Y197187D02*
D03*
Y190687D02*
D03*
Y184187D02*
D03*
Y177687D02*
D03*
Y171187D02*
D03*
Y164687D02*
D03*
X108500Y236250D02*
D03*
Y242750D02*
D03*
Y249250D02*
D03*
Y255750D02*
D03*
Y262250D02*
D03*
Y268750D02*
D03*
X146500Y268750D02*
D03*
Y262250D02*
D03*
Y255750D02*
D03*
Y249250D02*
D03*
Y242750D02*
D03*
Y236250D02*
D03*
D33*
X130452Y166437D02*
D03*
X130250Y238000D02*
D03*
D34*
X554442Y381513D02*
D03*
Y391513D02*
D03*
X572263Y391589D02*
D03*
Y381589D02*
D03*
D35*
X639316Y376571D02*
D03*
Y392571D02*
D03*
X589316Y376571D02*
D03*
Y392571D02*
D03*
D36*
X514525Y385541D02*
D03*
X505025D02*
D03*
X495525D02*
D03*
Y361541D02*
D03*
X514525D02*
D03*
X505025D02*
D03*
D37*
X672000Y281250D02*
D03*
Y250750D02*
D03*
X165131Y183852D02*
D03*
Y214352D02*
D03*
X165782Y255893D02*
D03*
Y286393D02*
D03*
D38*
X83816Y366639D02*
D03*
X13816D02*
D03*
D39*
X48816Y374789D02*
D03*
Y358489D02*
D03*
D40*
X284000Y359000D02*
D03*
X310000D02*
D03*
X336000D02*
D03*
X388000Y358000D02*
D03*
X362000D02*
D03*
D41*
X161000Y304000D02*
X166150D01*
X549773Y173901D02*
X555123D01*
X398910Y155637D02*
X404054Y150493D01*
X400000Y379000D02*
X420000Y359000D01*
X330000Y379000D02*
X400000D01*
X310000Y359000D02*
X330000Y379000D01*
X422596Y363114D02*
X473886D01*
X402720Y382990D02*
X422596Y363114D01*
X307990Y382990D02*
X402720D01*
X420000Y359000D02*
X477000D01*
X417000Y355000D02*
X481000D01*
X397000Y375000D02*
X417000Y355000D01*
X352000Y375000D02*
X397000D01*
X495525Y384754D02*
Y385541D01*
X473886Y363114D02*
X495525Y384754D01*
X284000Y359000D02*
X307990Y382990D01*
X514525Y376525D02*
Y385541D01*
X509000Y371000D02*
X514525Y376525D01*
X489000Y371000D02*
X509000D01*
X505025Y348507D02*
Y361541D01*
X477000Y359000D02*
X489000Y371000D01*
X501500Y334000D02*
Y338500D01*
X499000Y341000D02*
X501500Y338500D01*
X495000Y341000D02*
X499000D01*
X481000Y355000D02*
X495000Y341000D01*
X336000Y359000D02*
X352000Y375000D01*
X446000Y95000D02*
Y96000D01*
X312920Y147000D02*
X312960D01*
X309473Y143552D02*
X312920Y147000D01*
X708500Y127500D02*
Y141000D01*
X697750Y127500D02*
Y141000D01*
X703500Y127500D02*
Y135500D01*
X714250Y127500D02*
Y135250D01*
X705100Y264100D02*
Y265600D01*
X676500Y235500D02*
X705100Y264100D01*
X676500Y226500D02*
Y235500D01*
X687200Y240200D02*
X705100D01*
X681500Y234500D02*
X687200Y240200D01*
X681500Y226500D02*
Y234500D01*
X705100Y291000D02*
X718000Y278100D01*
Y230200D02*
Y278100D01*
X714300Y226500D02*
X718000Y230200D01*
X687250Y226500D02*
X714300D01*
X497000Y290000D02*
Y299000D01*
X482000Y314000D02*
X497000Y299000D01*
X454000Y314000D02*
X482000D01*
X444360Y323640D02*
X454000Y314000D01*
X444360Y323640D02*
Y332844D01*
X177000Y350000D02*
X184000Y343000D01*
X173250Y350000D02*
X177000D01*
X251000Y383000D02*
Y387000D01*
X243000Y395000D02*
X251000Y387000D01*
X219000Y395000D02*
X243000D01*
X217000Y393000D02*
X219000Y395000D01*
X217000Y386500D02*
Y393000D01*
X217000Y386500D02*
X217000Y386500D01*
X236500Y333000D02*
X248000D01*
X236500Y342000D02*
X248000D01*
X236500Y351000D02*
X248000D01*
X236500Y360000D02*
X248000D01*
X210000Y314000D02*
Y323000D01*
X201000Y312000D02*
Y323000D01*
X192000Y312000D02*
Y323000D01*
X183000Y308000D02*
Y323000D01*
X317472Y159552D02*
X320874Y162954D01*
X410418Y314094D02*
Y327250D01*
X409135Y312811D02*
X410418Y314094D01*
X409020Y312696D02*
X409135Y312811D01*
X402191Y312696D02*
X409020D01*
X401000Y313887D02*
X402191Y312696D01*
X401000Y313887D02*
Y327150D01*
Y332850D02*
Y339000D01*
X406000Y344000D01*
X442000D01*
X444360Y341640D01*
Y332844D02*
Y341640D01*
X345482Y139562D02*
X349473Y143552D01*
X346071Y132151D02*
X349473Y135552D01*
X301472Y159552D02*
X305473Y163552D01*
X373473Y127552D02*
Y135552D01*
Y122604D02*
Y127552D01*
X99000Y142500D02*
X104500Y137000D01*
Y132000D02*
Y137000D01*
X100000Y127500D02*
X104500Y132000D01*
X87500Y127500D02*
X100000D01*
X95000Y142500D02*
X99000D01*
X90000Y135000D02*
X97500D01*
X85490Y139510D02*
X90000Y135000D01*
X85490Y139510D02*
Y168118D01*
X80000Y135000D02*
X87500Y127500D01*
X80000Y135000D02*
Y165000D01*
X60000Y185000D02*
X80000Y165000D01*
X32300Y185000D02*
X60000D01*
X63808Y189800D02*
X85490Y168118D01*
X102303Y171221D02*
Y175000D01*
X97804Y179500D02*
X102303Y175000D01*
X95000Y179500D02*
X97804D01*
X97458Y164687D02*
X108702D01*
X95000Y166589D02*
Y170500D01*
Y166589D02*
X97658Y163931D01*
X40200Y189800D02*
X63808D01*
X32500Y197500D02*
X40200Y189800D01*
X32500Y197500D02*
Y227600D01*
X19500Y240600D02*
X32500Y227600D01*
X19500Y197800D02*
X32300Y185000D01*
X19500Y197800D02*
Y215200D01*
X306071Y266954D02*
X309473Y263552D01*
X409682Y202653D02*
X414590D01*
X409539Y202796D02*
X409682Y202653D01*
X285473Y223552D02*
X293472Y231552D01*
X274303Y250722D02*
X277472Y247552D01*
X273403Y251622D02*
X274303Y250722D01*
X277472Y183552D02*
X285473Y191552D01*
X333473Y207552D02*
X341473Y199552D01*
X325472Y183552D02*
X341473Y199552D01*
X321473Y195552D02*
X325472Y191552D01*
X317472Y199552D02*
X321473Y195552D01*
X309473Y223552D02*
X317472Y231552D01*
X304474Y220551D02*
X304874Y220151D01*
X301472Y223552D02*
X304474Y220551D01*
X313472Y211552D02*
X314071Y210954D01*
X309473Y215552D02*
X313472Y211552D01*
X404054Y150493D02*
X407524D01*
X418164D02*
X418222Y150434D01*
X413424Y150493D02*
X418164D01*
X373473Y175552D02*
X376874Y178954D01*
X328708Y274788D02*
X328759D01*
X325472Y271552D02*
X328708Y274788D01*
X317472Y204019D02*
Y207552D01*
Y199552D02*
Y204019D01*
X313501Y219581D02*
X317472Y223552D01*
X354071Y204151D02*
X357472Y207552D01*
X352874Y204151D02*
X354071D01*
X377442Y275522D02*
X381473Y279552D01*
X360973Y267052D02*
X362071Y268151D01*
X280874Y242954D02*
X281472Y243552D01*
X289473D02*
X293472Y239552D01*
X261472Y279552D02*
Y287579D01*
X257374Y275454D02*
X261472Y279552D01*
X389473Y143552D02*
X396357D01*
X511474Y197997D02*
X511984Y197487D01*
X516636D01*
Y193968D02*
Y197487D01*
X513317Y190649D02*
X516636Y193968D01*
X513317Y186579D02*
Y190649D01*
X555123Y173901D02*
X555164Y173860D01*
X597100Y172479D02*
X597140Y172520D01*
X597162Y172541D01*
X597140Y167600D02*
Y172520D01*
X588763Y172479D02*
X597100D01*
X285473Y207552D02*
X301472Y223552D01*
X298071Y234954D02*
X301472Y231552D01*
X314071Y210954D02*
X317472Y207552D01*
X297973Y276052D02*
X301472Y279552D01*
X237472Y122604D02*
Y127552D01*
X290071Y138954D02*
X293472Y135552D01*
X269473Y143552D02*
X272874Y146954D01*
X285473Y271552D02*
X288874Y268151D01*
X253472Y255552D02*
X256874Y258954D01*
X341473Y279552D02*
Y284501D01*
X389473Y263552D02*
X394421D01*
X250071Y132151D02*
X253472Y135552D01*
X242071Y154954D02*
X245473Y151552D01*
Y191552D02*
X248874Y188151D01*
X346071Y266954D02*
X349473Y263552D01*
X266071Y266954D02*
X269473Y263552D01*
X242071Y274954D02*
X245473Y271552D01*
X378071Y210954D02*
X381473Y207552D01*
X349473Y231552D02*
X352874Y234954D01*
X277472Y122604D02*
Y127552D01*
X317472Y122604D02*
Y127552D01*
X357472Y122604D02*
Y127552D01*
X389473Y183552D02*
X394421D01*
X389473Y223552D02*
X394421D01*
X232524Y247552D02*
X237472D01*
X232524Y167552D02*
X237472D01*
X232524Y239552D02*
X237472D01*
X245473D02*
X253472D01*
X232524Y215552D02*
X237472D01*
X245473D01*
X253472D01*
X381473Y279552D02*
Y284501D01*
X378071Y202954D02*
X381473Y199552D01*
X349473Y223552D02*
X352874Y220151D01*
X322071Y148151D02*
X325472Y151552D01*
X250071Y178954D02*
X253472Y175552D01*
X274071Y170954D02*
X277472Y167552D01*
X269473Y239552D02*
X277472D01*
X362071Y148151D02*
X365472Y151552D01*
X330071Y172151D02*
X333473Y175552D01*
X354071Y164151D02*
X357472Y167552D01*
X321601Y235424D02*
X325472Y231552D01*
Y223552D02*
X333473Y231552D01*
X317472D02*
X325472Y223552D01*
X301472Y231552D02*
X309473Y223552D01*
X293472D02*
X301472Y231552D01*
X277472D02*
X285473Y223552D01*
X261472Y239552D02*
X269473Y231552D01*
X277472Y223552D01*
X285473Y215552D01*
X293472Y223552D01*
X277472Y215552D02*
X285473Y207552D01*
X293472Y199552D01*
X325472Y207552D02*
X333473Y199552D01*
X341473Y207552D02*
X349473D01*
X330071Y220151D02*
X333473Y223552D01*
X293472Y255552D02*
X296874Y252151D01*
X314071Y242954D02*
X317472Y239552D01*
X277472D02*
X280874Y242954D01*
X293472Y239552D02*
X301472D01*
X333473Y223552D02*
X341473Y215552D01*
X325472D02*
X330071Y220151D01*
X317472Y223552D02*
X325472Y215552D01*
X293472Y207552D02*
X301472Y199552D01*
X293472Y183552D02*
X301472Y191552D01*
X285473Y191552D02*
X293472Y183552D01*
X285473D02*
X293472Y175552D01*
X301472Y183552D01*
X333473Y183552D02*
X341473Y191552D01*
X365472D02*
X368874Y188151D01*
X338071Y156151D02*
X341473Y159552D01*
X370071Y212151D02*
X373473Y215552D01*
X365472Y231552D02*
X368874Y228151D01*
X346071Y196151D02*
X349473Y199552D01*
X338071Y180151D02*
X341473Y183552D01*
X277472Y191552D02*
X285473Y199552D01*
X293472Y191552D01*
Y191552D02*
X301472Y199552D01*
X274071Y180151D02*
X277472Y183552D01*
X266071Y180151D02*
X269473Y183552D01*
X290071Y172151D02*
X293472Y175552D01*
X282071Y204151D02*
X285473Y207552D01*
X325472Y199552D02*
X328874Y196151D01*
X306071Y186954D02*
X309473Y183552D01*
X317472Y191552D02*
X320874Y188151D01*
X309473Y191552D02*
X317472Y183552D01*
X309473Y191552D02*
X317472Y199552D01*
Y207552D02*
X325472D01*
X333473Y215552D01*
Y207552D02*
X336874Y210954D01*
X349473Y207552D02*
X352874Y204151D01*
X282071Y234954D02*
X285473Y231552D01*
X274071Y220151D02*
X277472Y223552D01*
X266071Y228151D02*
X269473Y231552D01*
X314071Y170954D02*
X317472Y167552D01*
X309473Y231552D02*
X312874Y234954D01*
X325472Y231552D02*
X329396Y235475D01*
X301472Y191552D02*
X306071Y186954D01*
X320874Y188151D02*
X325472Y183552D01*
X341473Y191552D02*
X344874Y188151D01*
X261472Y159552D02*
X264874Y156151D01*
X285473Y151552D02*
X288874Y148151D01*
X293472Y207552D02*
X296874Y210954D01*
X269473Y183552D02*
X277472Y191552D01*
X330071Y132151D02*
X333473Y135552D01*
X381473Y159552D02*
X385505Y155520D01*
X477916Y125369D02*
X485875D01*
X505117Y348599D02*
X510560D01*
X505421Y341956D02*
X510636D01*
X511474Y203898D02*
X516353D01*
X259322Y241703D02*
X261472Y239552D01*
X255623Y241703D02*
X259322D01*
X253472Y239552D02*
X255623Y241703D01*
X102337Y171187D02*
X108702D01*
X91649Y154931D02*
X97458D01*
X102303Y171221D02*
X102337Y171187D01*
X102102Y242784D02*
X102135Y242750D01*
X101994Y242891D02*
X102102Y242784D01*
X102135Y242750D02*
X108500D01*
X130750Y228500D02*
Y237500D01*
X130250Y238000D02*
X130750Y237500D01*
X117750Y222446D02*
Y228500D01*
Y222446D02*
X117822Y222374D01*
X124250Y222794D02*
Y228500D01*
Y222794D02*
X126096Y220948D01*
X137288D01*
X137407Y221067D01*
Y228344D01*
X137250Y228500D02*
X137407Y228344D01*
X290071Y156151D02*
X293472Y159552D01*
X298071Y154954D02*
X301472Y151552D01*
X309473Y159552D02*
X312874Y162954D01*
X309473Y135552D02*
X312874Y138954D01*
X330071Y124151D02*
X333473Y127552D01*
X346071Y124151D02*
X349473Y127552D01*
X346071Y148151D02*
X349473Y151552D01*
X333473Y143552D02*
X336874Y140151D01*
X389473Y122604D02*
Y127552D01*
X381473Y122604D02*
Y127552D01*
X500660Y125388D02*
Y135126D01*
X465000Y133827D02*
X487934D01*
X496373Y125388D01*
X500660D01*
D42*
X547601Y391505D02*
X547610Y391513D01*
X554442D01*
X388000Y342000D02*
Y358000D01*
X516280Y321312D02*
X528312D01*
X516280Y304312D02*
X527688D01*
X208000Y379000D02*
Y386500D01*
Y374000D02*
Y379000D01*
X205000Y371000D02*
X208000Y374000D01*
X226000Y376000D02*
Y386500D01*
X236500Y378000D02*
X259000D01*
X236500Y369000D02*
X258000D01*
X653780Y195219D02*
Y204312D01*
X594850Y362000D02*
X603000D01*
X422286Y333244D02*
X431660D01*
Y372356D02*
Y383644D01*
X444360Y372356D02*
Y383644D01*
X469760Y321556D02*
Y332844D01*
X457060Y372356D02*
Y383644D01*
X469760Y372356D02*
Y383644D01*
X505025Y377015D02*
Y385541D01*
D43*
X564053Y371936D02*
Y388837D01*
X498231Y277453D02*
X510193D01*
X507380Y197997D02*
X511474D01*
X435984Y241423D02*
Y245920D01*
X435736Y241175D02*
X435984Y241423D01*
X715000Y102000D02*
Y115750D01*
X714250Y116500D02*
X715000Y115750D01*
X708500Y108000D02*
Y116500D01*
X288920Y163000D02*
X289000D01*
X285473Y159552D02*
X288920Y163000D01*
X277552Y159552D02*
X281000Y163000D01*
X277472Y159552D02*
X277552D01*
X253472Y151552D02*
X256920Y155000D01*
X697750Y100750D02*
Y116500D01*
X690052Y93052D02*
X697750Y100750D01*
X447948Y93052D02*
X690052D01*
X703500Y100500D02*
Y116500D01*
X446000Y95000D02*
X447948Y93052D01*
X377482Y120951D02*
Y139542D01*
X380386Y118614D02*
X411267Y87733D01*
X379820Y118614D02*
X380386D01*
X377482Y120951D02*
X379820Y118614D01*
X411267Y32196D02*
Y87733D01*
X372000Y99000D02*
X390000D01*
X354000Y117000D02*
X372000Y99000D01*
X328000Y117000D02*
X354000D01*
X321463Y123538D02*
X328000Y117000D01*
X321463Y123538D02*
Y128498D01*
X317898Y132062D02*
X321463Y128498D01*
X308027Y132062D02*
X317898D01*
X304963Y135127D02*
X308027Y132062D01*
X304963Y135127D02*
Y144998D01*
X302918Y147042D02*
X304963Y144998D01*
X297983Y147042D02*
X302918D01*
X293472Y151552D02*
X297983Y147042D01*
X698900Y221000D02*
X705100Y214800D01*
X672000Y221000D02*
X698900D01*
X670750Y222250D02*
X672000Y221000D01*
X670750Y222250D02*
Y226500D01*
X676500Y207500D02*
Y215500D01*
X687250Y207250D02*
Y215500D01*
X681500Y151500D02*
Y215500D01*
X657674Y127674D02*
X681500Y151500D01*
X670750Y190750D02*
Y215500D01*
X631498Y151498D02*
X670750Y190750D01*
X505212Y327000D02*
X508212Y330000D01*
X491000Y327000D02*
X505212D01*
X475000Y343000D02*
X491000Y327000D01*
X463000Y343000D02*
X475000D01*
X457060Y337060D02*
X463000Y343000D01*
X457060Y332844D02*
Y337060D01*
X321000Y291800D02*
X328200D01*
X337982Y282017D01*
Y262107D02*
Y282017D01*
Y262107D02*
X338000Y262089D01*
Y258025D02*
Y262089D01*
X337982Y258008D02*
X338000Y258025D01*
X337982Y254107D02*
Y258008D01*
Y254107D02*
X340027Y252062D01*
X341898D01*
X345000Y248960D01*
Y244025D02*
Y248960D01*
Y244025D02*
X349473Y239552D01*
X324200Y318000D02*
X332700Y309500D01*
X302000Y318000D02*
X324200D01*
X295000Y311000D02*
X302000Y318000D01*
X295000Y300320D02*
Y311000D01*
Y300320D02*
X305320Y290000D01*
X315000D01*
X321000Y284000D01*
Y263089D02*
Y284000D01*
Y263089D02*
X325047Y259042D01*
X326918D01*
X328963Y256998D01*
Y255127D02*
Y256998D01*
Y255127D02*
X332027Y252062D01*
X333898D01*
X336963Y248998D01*
Y247127D02*
Y248998D01*
Y247127D02*
X340027Y244062D01*
X341898D01*
X345787Y240173D01*
Y219237D02*
Y240173D01*
X338754Y239552D02*
X341473D01*
X334957Y243350D02*
X338754Y239552D01*
X331650Y243350D02*
X334957D01*
X307300Y305500D02*
X321000Y291800D01*
X309898Y276062D02*
X313000Y272960D01*
Y263089D02*
Y272960D01*
Y263089D02*
X316027Y260062D01*
X281900Y306100D02*
Y309500D01*
Y306100D02*
X305982Y282017D01*
Y278107D02*
Y282017D01*
Y278107D02*
X308027Y276062D01*
X309898D01*
X316027Y260062D02*
X317898D01*
X321982Y255978D01*
Y253736D02*
Y255978D01*
Y253736D02*
X323719Y252000D01*
X327000D01*
X329261Y249739D01*
Y245739D02*
Y249739D01*
Y245739D02*
X331650Y243350D01*
X256500Y305500D02*
X258216D01*
X281334Y282382D01*
X438280Y107000D02*
X446000D01*
X541000Y330000D02*
X551000Y320000D01*
X508212Y330000D02*
X541000D01*
X465000Y348000D02*
X478500D01*
X492500Y334000D01*
X517140Y339140D02*
Y351502D01*
X512000Y334000D02*
X517140Y339140D01*
X501500Y334000D02*
X512000D01*
X421979Y333150D02*
X422286Y332844D01*
X410418Y333150D02*
X421979D01*
X415012Y216845D02*
X422373Y224206D01*
X401629Y222899D02*
X413025D01*
X418755Y228629D01*
X427399D01*
X432727Y223301D01*
Y213527D02*
Y223301D01*
Y213527D02*
X437161Y209093D01*
X396728Y227800D02*
X401629Y222899D01*
X389473Y231552D02*
X429689D01*
X447679Y255427D02*
X502135D01*
X281334Y261441D02*
Y282382D01*
Y261441D02*
X283194Y259580D01*
X564053Y356897D02*
X564166Y356784D01*
X309473Y207552D02*
X313472Y211552D01*
X317472Y215552D01*
X258071Y180151D02*
X261472Y183552D01*
X309473Y207552D02*
Y207552D01*
X399645Y150639D02*
X430252Y120031D01*
X395177Y150639D02*
X399645D01*
X399996Y159552D02*
X404418Y155130D01*
X399231Y163529D02*
X405144Y157617D01*
X430252Y115028D02*
Y120031D01*
X419994Y121268D02*
Y126592D01*
X398595Y147991D02*
X419994Y126592D01*
X387959Y147991D02*
X398595D01*
X599314Y127674D02*
X657674D01*
X595167Y123527D02*
X599314Y127674D01*
X511295Y126151D02*
Y135837D01*
X493587Y153544D02*
X511295Y135837D01*
X513920Y123527D02*
X595167D01*
X511295Y126151D02*
X513920Y123527D01*
X345598Y257651D02*
X347964Y260017D01*
X351448D01*
X353433Y262002D01*
X353454D02*
Y283210D01*
X364300Y294057D02*
X395520D01*
X353454Y283210D02*
X364300Y294057D01*
X345620Y254456D02*
Y257651D01*
X596260Y151498D02*
X631498D01*
X584331Y139569D02*
X596260Y151498D01*
X377449Y163529D02*
X399231D01*
X389473Y159552D02*
X399996D01*
X417659Y175368D02*
X439483Y153544D01*
X403278Y175368D02*
X417659D01*
X395462Y167552D02*
X403278Y175368D01*
X389473Y167552D02*
X395462D01*
X395652Y171398D02*
X401981Y177726D01*
X385318Y171398D02*
X395652D01*
X396395Y175552D02*
X400568Y179726D01*
X389473Y175552D02*
X396395D01*
X397271Y179552D02*
X399445Y181726D01*
X385472Y179552D02*
X397271D01*
X401981Y177726D02*
X419281D01*
X399445Y181726D02*
X420938D01*
X400568Y179726D02*
X420109D01*
X461608Y220397D02*
X465255Y216750D01*
Y194305D02*
Y216750D01*
X463239Y192289D02*
X465255Y194305D01*
X446252Y220046D02*
Y227918D01*
X438332Y235837D02*
X446252Y227918D01*
X421707Y235837D02*
X438332D01*
X507839Y180679D02*
X513317D01*
X498580Y189938D02*
X507839Y180679D01*
X447588Y189938D02*
X498580D01*
X445406Y192120D02*
X447588Y189938D01*
X504993Y200384D02*
X507380Y197997D01*
X475133Y200384D02*
X504993D01*
X470523Y195774D02*
X475133Y200384D01*
X430252Y115028D02*
X438280Y107000D01*
X429143Y101935D02*
X567727D01*
X391488Y139589D02*
X429143Y101935D01*
X306071Y242954D02*
X309473Y239552D01*
X513317Y180679D02*
X517937D01*
X527547Y190289D02*
X544670D01*
X517937Y180679D02*
X527547Y190289D01*
X444476Y173901D02*
X543873D01*
X521334Y176981D02*
X527452Y183099D01*
X453912Y176981D02*
X521334D01*
X441869Y189024D02*
X453912Y176981D01*
X581957Y227577D02*
X600405D01*
X544670Y190289D02*
X581957Y227577D01*
X409353Y216845D02*
X415012D01*
X429159Y212025D02*
X438889Y202295D01*
X452054Y271540D02*
X454177Y273663D01*
X434211Y271540D02*
X452054D01*
X603062Y165509D02*
Y172541D01*
X581533Y143980D02*
X603062Y165509D01*
X522829Y143980D02*
X581533D01*
X500994Y168020D02*
X560997D01*
X498814Y170200D02*
X500994Y168020D01*
X444413Y170200D02*
X498814D01*
X500870Y165316D02*
X515531D01*
X497986Y168200D02*
X500870Y165316D01*
X442948Y168200D02*
X497986D01*
X500974Y162384D02*
X514088D01*
X497157Y166201D02*
X500974Y162384D01*
X442120Y166201D02*
X497157D01*
X500895Y159635D02*
X512102D01*
X496329Y164200D02*
X500895Y159635D01*
X441291Y164200D02*
X496329D01*
X500907Y156794D02*
X510015D01*
X495500Y162201D02*
X500907Y156794D01*
X440463Y162201D02*
X495500D01*
X500965Y153907D02*
X505493D01*
X494672Y160201D02*
X500965Y153907D01*
X439635Y160201D02*
X494672D01*
X493843Y158201D02*
X524421Y127623D01*
X438806Y158201D02*
X493843D01*
X515531Y165316D02*
X523526Y157321D01*
X514088Y162384D02*
X521747Y154725D01*
X512102Y159635D02*
X525198Y146538D01*
X510015Y156794D02*
X522829Y143980D01*
X505493Y153907D02*
X527494Y131905D01*
X451203Y62700D02*
Y73822D01*
X389473Y135552D02*
X451203Y73822D01*
X387921Y139589D02*
X391488D01*
X377518Y147507D02*
X383744D01*
X373473Y151552D02*
X377518Y147507D01*
X384398Y151552D02*
X387959Y147991D01*
X381473Y151552D02*
X384398D01*
X440465Y26563D02*
X451203Y37300D01*
X423812Y26563D02*
X440465D01*
X414720Y35654D02*
X423812Y26563D01*
X485450Y20747D02*
X502003Y37300D01*
X422717Y20747D02*
X485450D01*
X411267Y32196D02*
X422717Y20747D01*
X185603Y118185D02*
X214768Y147350D01*
X185603Y64634D02*
Y118185D01*
X212568Y148261D02*
Y160512D01*
X183403Y119096D02*
X212568Y148261D01*
X183403Y64634D02*
Y119096D01*
X227375Y151751D02*
X230076Y154452D01*
X227375Y147886D02*
Y151751D01*
X221399Y141909D02*
X227375Y147886D01*
X221399Y91376D02*
Y141909D01*
X219199Y92287D02*
Y142821D01*
X225175Y148797D01*
Y152663D01*
X229165Y156652D01*
X204312Y151957D02*
Y164224D01*
X159522Y107167D02*
X204312Y151957D01*
X206511Y163313D02*
X218751Y175552D01*
X206511Y151046D02*
Y163313D01*
X161722Y106256D02*
X206511Y151046D01*
X196222Y156429D02*
Y168391D01*
X132603Y92809D02*
X196222Y156429D01*
X198423Y167479D02*
X221745Y190802D01*
X198423Y155518D02*
Y167479D01*
X134803Y91898D02*
X198423Y155518D01*
X187729Y161573D02*
Y171920D01*
X108214Y82058D02*
X187729Y161573D01*
X189929Y171008D02*
X225628Y206707D01*
X189929Y160662D02*
Y171008D01*
X110414Y81147D02*
X189929Y160662D01*
X214768Y159600D02*
X222895Y167727D01*
X214768Y147350D02*
Y159600D01*
X225628Y206707D02*
X233368D01*
X224717Y208907D02*
X233834D01*
X187729Y171920D02*
X224717Y208907D01*
X221745Y190802D02*
X233052D01*
X220834Y193002D02*
X233972D01*
X196222Y168391D02*
X220834Y193002D01*
X222895Y167727D02*
X226692D01*
X221984Y169927D02*
X227179D01*
X212568Y160512D02*
X221984Y169927D01*
X159522Y55217D02*
Y107167D01*
X161722Y56128D02*
Y106256D01*
X132603Y64634D02*
Y92809D01*
X134803Y64634D02*
Y91898D01*
X108214Y54602D02*
Y82058D01*
X110414Y55514D02*
Y81147D01*
X230076Y154452D02*
X232057D01*
X229165Y156652D02*
X232057D01*
X211663Y81640D02*
X221399Y91376D01*
X211663Y55851D02*
Y81640D01*
X209463Y82551D02*
X219199Y92287D01*
X209463Y54939D02*
Y82551D01*
X228361Y103897D02*
X236403Y95856D01*
X228361Y103897D02*
Y136569D01*
X226161Y102986D02*
X234203Y94944D01*
X266133Y51579D02*
X281698D01*
X287203Y46075D01*
X263021Y54692D02*
X266133Y51579D01*
X289137Y37300D02*
X298803D01*
X287203Y39234D02*
Y46075D01*
Y39234D02*
X289137Y37300D01*
X245473Y132502D02*
Y135552D01*
X241973Y129002D02*
X245473Y132502D01*
X241973Y121447D02*
Y129002D01*
X238822Y118297D02*
X241973Y121447D01*
X238822Y114787D02*
Y118297D01*
X260821Y53780D02*
X265222Y49379D01*
X280787D01*
X285003Y39234D02*
Y45163D01*
X280787Y49379D02*
X285003Y45163D01*
X283068Y37300D02*
X285003Y39234D01*
X273403Y37300D02*
X283068D01*
X245473Y140502D02*
Y143552D01*
X240972Y134103D02*
Y136002D01*
X245473Y140502D01*
X238922Y132052D02*
X240972Y134103D01*
X233472Y128502D02*
X237023Y132052D01*
X238922D01*
X236623Y113875D02*
Y117797D01*
X233472Y120947D02*
X236623Y117797D01*
X233472Y120947D02*
Y128502D01*
X263021Y54692D02*
Y90588D01*
X238822Y114787D02*
X263021Y90588D01*
X260821Y53780D02*
Y89677D01*
X236623Y113875D02*
X260821Y89677D01*
X236403Y65279D02*
Y95856D01*
X234203Y64634D02*
Y94944D01*
X250572Y115943D02*
Y122147D01*
Y115943D02*
X287203Y79313D01*
X285003Y64634D02*
Y78401D01*
X248372Y115031D02*
X285003Y78401D01*
X248372Y115031D02*
Y122147D01*
X266572Y115386D02*
Y122147D01*
X264373Y114475D02*
Y122147D01*
X302701Y90212D02*
X318423D01*
X278439Y114473D02*
X302701Y90212D01*
X278439Y114473D02*
Y117914D01*
X301789Y88012D02*
X317512D01*
X276239Y113562D02*
X301789Y88012D01*
X276239Y113562D02*
Y117992D01*
X318423Y90212D02*
X338003Y70632D01*
X317512Y88012D02*
X335803Y69721D01*
X305074Y102224D02*
X332215D01*
X331304Y100024D02*
X361836Y69492D01*
X304162Y100024D02*
X331304D01*
X361836Y56814D02*
Y69492D01*
X364036Y57725D02*
Y70403D01*
X332215Y102224D02*
X364036Y70403D01*
X360685Y89025D02*
X371069D01*
X337996Y111715D02*
X360685Y89025D01*
X359774Y86825D02*
X370158D01*
X337085Y109515D02*
X359774Y86825D01*
X314560Y109515D02*
X337085D01*
X290572Y116725D02*
X305074Y102224D01*
X288372Y115814D02*
X304162Y100024D01*
X290572Y116725D02*
Y122147D01*
X288372Y115814D02*
Y122147D01*
X315471Y111715D02*
X337996D01*
X305450Y121737D02*
X315471Y111715D01*
X297973Y126103D02*
X314560Y109515D01*
X305450Y121737D02*
Y128525D01*
X386603Y64634D02*
Y70381D01*
X370158Y86825D02*
X386603Y70381D01*
X388803Y64634D02*
Y71292D01*
X371069Y89025D02*
X388803Y71292D01*
X335803Y64634D02*
Y69721D01*
X338003Y64634D02*
Y70632D01*
X285473Y135552D02*
X288972Y132052D01*
X293922D01*
X297973Y126103D02*
Y128002D01*
X293922Y132052D02*
X297973Y128002D01*
X384668Y62700D02*
X386603Y64634D01*
X375003Y62700D02*
X384668D01*
X293472Y143552D02*
X296973Y140052D01*
Y135103D02*
Y140052D01*
X301023Y131052D02*
X302922D01*
X305450Y128525D01*
X296973Y135103D02*
X301023Y131052D01*
X390737Y62700D02*
X400403D01*
X388803Y64634D02*
X390737Y62700D01*
X285473Y125047D02*
X288372Y122147D01*
X285473Y125047D02*
Y127552D01*
X381766Y50000D02*
X386603Y45163D01*
Y39234D02*
Y45163D01*
X368649Y50000D02*
X381766D01*
X384668Y37300D02*
X386603Y39234D01*
X375003Y37300D02*
X384668D01*
X361836Y56814D02*
X368649Y50000D01*
X293472Y125047D02*
Y127552D01*
X290572Y122147D02*
X293472Y125047D01*
X382677Y52200D02*
X388803Y46075D01*
Y39234D02*
Y46075D01*
X369561Y52200D02*
X382677D01*
X390737Y37300D02*
X400403D01*
X388803Y39234D02*
X390737Y37300D01*
X364036Y57725D02*
X369561Y52200D01*
X281472Y120947D02*
Y128502D01*
X270922Y139052D02*
X272973Y137002D01*
X265972Y139052D02*
X270922D01*
X272973Y135103D02*
Y137002D01*
X261472Y143552D02*
X265972Y139052D01*
X278922Y131052D02*
X281472Y128502D01*
X277023Y131052D02*
X278922D01*
X278439Y117914D02*
X281472Y120947D01*
X272973Y135103D02*
X277023Y131052D01*
X338003Y64634D02*
X339937Y62700D01*
X349603D01*
X264523Y135552D02*
X268023Y132052D01*
X272262D01*
X261472Y135552D02*
X264523D01*
X273472Y120758D02*
X276239Y117992D01*
X272262Y132052D02*
X273472Y130842D01*
Y120758D02*
Y130842D01*
X333868Y62700D02*
X335803Y64634D01*
X324203Y62700D02*
X333868D01*
X228361Y136569D02*
X230244Y138452D01*
X226161Y137480D02*
X229333Y140652D01*
X226161Y102986D02*
Y137480D01*
X310761Y55484D02*
X316736Y49509D01*
X261472Y125047D02*
X264373Y122147D01*
X261472Y125047D02*
Y127552D01*
X332503Y49509D02*
X335803Y46209D01*
Y39234D02*
Y46209D01*
X316736Y49509D02*
X332503D01*
X333868Y37300D02*
X335803Y39234D01*
X324203Y37300D02*
X333868D01*
X269473Y125047D02*
Y127552D01*
X266572Y122147D02*
X269473Y125047D01*
X333414Y51709D02*
X338003Y47120D01*
Y39234D02*
Y47120D01*
X317648Y51709D02*
X333414D01*
X339937Y37300D02*
X349603D01*
X338003Y39234D02*
X339937Y37300D01*
X312961Y56395D02*
X317648Y51709D01*
X264373Y114475D02*
X310761Y68086D01*
Y55484D02*
Y68086D01*
X266572Y115386D02*
X312961Y68997D01*
Y56395D02*
Y68997D01*
X245473Y125047D02*
Y127552D01*
Y125047D02*
X248372Y122147D01*
X283068Y62700D02*
X285003Y64634D01*
X273403Y62700D02*
X283068D01*
X253472Y125047D02*
Y127552D01*
X250572Y122147D02*
X253472Y125047D01*
X289137Y62700D02*
X298803D01*
X287203Y64634D02*
X289137Y62700D01*
X287203Y64634D02*
Y79313D01*
X236403Y64634D02*
X238337Y62700D01*
X248003D01*
X234957Y135552D02*
X237472D01*
X230244Y138452D02*
X232057D01*
X234957Y135552D01*
X232268Y62700D02*
X234203Y64634D01*
X222603Y62700D02*
X232268D01*
X234957Y143552D02*
X237472D01*
X232057Y140652D02*
X234957Y143552D01*
X229333Y140652D02*
X232057D01*
X209463Y54939D02*
X215628Y48774D01*
X234957Y159552D02*
X237472D01*
X232057Y156652D02*
X234957Y159552D01*
X234203Y39234D02*
Y45163D01*
X230592Y48774D02*
X234203Y45163D01*
X232268Y37300D02*
X234203Y39234D01*
X222603Y37300D02*
X232268D01*
X215628Y48774D02*
X230592D01*
X232057Y154452D02*
X234957Y151552D01*
X237472D01*
X236403Y39234D02*
X238337Y37300D01*
X248003D01*
X231503Y50974D02*
X236403Y46075D01*
Y39234D02*
Y46075D01*
X211663Y55851D02*
X216539Y50974D01*
X231503D01*
X242422Y167552D02*
X245473D01*
X238422Y163552D02*
X242422Y167552D01*
X230867Y163552D02*
X238422D01*
X226692Y167727D02*
X230867Y163552D01*
X187537Y62700D02*
X197203D01*
X185603Y64634D02*
X187537Y62700D01*
X228804Y171552D02*
X246422D01*
X250422Y167552D02*
X253472D01*
X227179Y169927D02*
X228804Y171552D01*
X246422D02*
X250422Y167552D01*
X181468Y62700D02*
X183403Y64634D01*
X171803Y62700D02*
X181468D01*
X217840Y177752D02*
X234723D01*
X183403Y39234D02*
Y45163D01*
X165657Y49082D02*
X179484D01*
X159522Y55217D02*
X165657Y49082D01*
X179484D02*
X183403Y45163D01*
X181468Y37300D02*
X183403Y39234D01*
X171803Y37300D02*
X181468D01*
X234723Y177752D02*
X236023Y179052D01*
X238922D01*
X242422Y175552D02*
X245473D01*
X238922Y179052D02*
X242422Y175552D01*
X187537Y37300D02*
X197203D01*
X185603Y39234D02*
Y46075D01*
X166568Y51282D02*
X180395D01*
X185603Y46075D01*
Y39234D02*
X187537Y37300D01*
X161722Y56128D02*
X166568Y51282D01*
X218751Y175552D02*
X237472D01*
X204312Y164224D02*
X217840Y177752D01*
X130668Y62700D02*
X132603Y64634D01*
X121003Y62700D02*
X130668D01*
X233972Y193002D02*
X236023Y195052D01*
X249972D01*
X253472Y191552D01*
X136737Y62700D02*
X146403D01*
X134803Y64634D02*
X136737Y62700D01*
X236802Y187052D02*
X241973D01*
X245473Y183552D01*
X233052Y190802D02*
X236802Y187052D01*
X113907Y52021D02*
X128857D01*
X134803Y46075D01*
X110414Y55514D02*
X113907Y52021D01*
X134803Y39234D02*
X136737Y37300D01*
X146403D01*
X134803Y39234D02*
Y46075D01*
X233368Y206707D02*
X236023Y204052D01*
X264972D01*
X269473Y199552D01*
X112996Y49820D02*
X127945D01*
X132603Y45163D01*
X108214Y54602D02*
X112996Y49820D01*
X132603Y39234D02*
Y45163D01*
X130668Y37300D02*
X132603Y39234D01*
X121003Y37300D02*
X130668D01*
X236023Y211052D02*
X265972D01*
X235508Y210537D02*
X236023Y211052D01*
X235464Y210537D02*
X235508D01*
X265972Y211052D02*
X269473Y207552D01*
X233834Y208907D02*
X235464Y210537D01*
X369668Y282256D02*
X376077Y288665D01*
X369668Y261504D02*
Y282256D01*
X367216Y259052D02*
X369668Y261504D01*
X364023Y259052D02*
X367216D01*
X361973Y257002D02*
X364023Y259052D01*
X361973Y251052D02*
Y257002D01*
X362071Y268151D02*
X365472Y271552D01*
X256874Y258954D02*
X256973Y259052D01*
X396255D02*
X403749Y266547D01*
X386962Y259052D02*
X396255D01*
X388023Y251052D02*
X392224D01*
X381473Y250603D02*
X385318Y254448D01*
X381473Y247552D02*
Y250603D01*
X385318Y254448D02*
Y257408D01*
X381922Y243052D02*
X385973Y247103D01*
Y249002D01*
X388023Y251052D01*
X457149Y212401D02*
X460523Y215774D01*
X446252Y220046D02*
X450523Y215774D01*
X451980Y209093D02*
X460523Y200549D01*
X365472Y239552D02*
X369188Y235837D01*
X452556Y299959D02*
X459077Y293438D01*
X465019Y296688D02*
X470423D01*
X461769Y293438D02*
X465019Y296688D01*
X459077Y293438D02*
X461769D01*
X453917Y303194D02*
X460423Y296688D01*
X381473Y223552D02*
X385472Y219552D01*
X381473Y231552D02*
X381973D01*
X385723Y227802D01*
X389219D01*
X389222Y227800D01*
X460523Y195774D02*
Y200549D01*
X450523Y195774D02*
X454008Y192289D01*
X381473Y215552D02*
X385496Y211529D01*
X357472Y223552D02*
X360973Y227052D01*
Y240794D01*
X363775Y243596D01*
X374466D01*
X377972Y247103D01*
Y258091D01*
X450423Y296688D02*
X456887Y290223D01*
X447750Y299959D02*
X452556D01*
X446335Y298544D02*
X447750Y299959D01*
X446335Y293800D02*
Y298544D01*
Y293800D02*
X448174Y291961D01*
X450595D01*
X454177Y288378D01*
Y273663D02*
Y288378D01*
X449609Y261056D02*
X456887Y268334D01*
Y290223D01*
X345787Y219237D02*
X349473Y215552D01*
X381473Y183552D02*
X385620Y187700D01*
X381473Y175552D02*
X385472Y179552D01*
X381473Y167552D02*
X385318Y171398D01*
X381473Y191552D02*
X384226D01*
X388358Y195684D01*
X448840Y212401D02*
X457149D01*
X438889Y202295D02*
X447044D01*
X450523Y205774D01*
X373473Y191552D02*
X377254Y195334D01*
X382204D01*
X384972Y198103D01*
Y200002D01*
X388491Y203521D01*
X454008Y192289D02*
X463239D01*
X370071Y250954D02*
X373473Y247552D01*
X354071Y228151D02*
X357472Y231552D01*
X320973Y244052D02*
X325472Y239552D01*
X373473Y183552D02*
X376874Y186954D01*
X274071Y204151D02*
X277472Y207552D01*
X274071Y196151D02*
X277472Y199552D01*
X338071Y226954D02*
X341473Y223552D01*
X333473Y231552D02*
X333473D01*
X317472D02*
X317472D01*
X301472D02*
X301472D01*
X293472Y223552D02*
X293472D01*
X277472Y231552D02*
X277472D01*
X293472Y223552D02*
Y223552D01*
X333473Y199552D02*
X333473D01*
X296874Y252151D02*
X296973Y252052D01*
X320973Y244052D02*
Y249002D01*
X318922Y251052D02*
X320973Y249002D01*
X315954Y251052D02*
X318922D01*
X313870Y253136D02*
X315954Y251052D01*
X313870Y253136D02*
Y256810D01*
X311100Y259580D02*
X313870Y256810D01*
X283194Y259580D02*
X311100D01*
X350922Y251052D02*
X352972Y249002D01*
X349023Y251052D02*
X350922D01*
X333473Y223552D02*
Y223552D01*
X301472Y223552D02*
Y223552D01*
X309473Y215552D02*
Y215552D01*
X301472Y199552D02*
X301472D01*
X285473Y191552D02*
Y191552D01*
X309473Y183552D02*
Y183552D01*
X325472Y183552D02*
Y183552D01*
X301472Y183552D02*
X301472D01*
X333473D02*
Y183552D01*
X345620Y254456D02*
X349023Y251052D01*
X370071Y164151D02*
X373473Y167552D01*
X362071Y164151D02*
X365472Y167552D01*
Y159552D02*
X368874Y156151D01*
X357472Y159552D02*
X360874Y156151D01*
X365472Y175552D02*
X368874Y172151D01*
X365472Y183552D02*
X368874Y180151D01*
X357472Y175552D02*
X360874Y172151D01*
X357472Y183552D02*
X360874Y180151D01*
X349473Y183552D02*
X352874Y180151D01*
X349473Y175552D02*
X352874Y172151D01*
X346071Y164151D02*
X349473Y167552D01*
X357472Y191552D02*
X360874Y188151D01*
X349473Y191552D02*
X352874Y188151D01*
X370071Y196151D02*
X373473Y199552D01*
X370071Y204151D02*
X373473Y207552D01*
X362071Y196151D02*
X365472Y199552D01*
X362071Y204151D02*
X365472Y207552D01*
X354071Y212151D02*
X357472Y215552D01*
X362071Y212151D02*
X365472Y215552D01*
X362071Y220151D02*
X365472Y223552D01*
X373473D02*
X376874Y220151D01*
X373473Y231552D02*
X376874Y228151D01*
X377972Y258091D02*
X379934Y260052D01*
X382922D01*
X385318Y257408D02*
X386962Y259052D01*
X382922Y260052D02*
X384996Y262126D01*
X380023Y243052D02*
X381922D01*
X373473Y239552D02*
X376523D01*
X380023Y243052D01*
X352972Y244052D02*
Y249002D01*
Y244052D02*
X357472Y239552D01*
X361973Y251052D02*
X365472Y247552D01*
X460423Y276688D02*
X463825Y273286D01*
X440881Y281969D02*
X446163Y276688D01*
X450423D01*
X447021Y283286D02*
X450423Y286688D01*
X389473Y151552D02*
X394263D01*
X373473Y143545D02*
Y143552D01*
X293472Y191552D02*
Y191552D01*
X306071Y196151D02*
X309473Y199552D01*
X317472Y183552D02*
Y183552D01*
Y199552D02*
Y199552D01*
X312874Y234954D02*
X313344Y235424D01*
X437161Y209093D02*
X451980D01*
X429689Y231552D02*
X448840Y212401D01*
X466417Y219881D02*
X470523Y215774D01*
X470423Y286688D02*
X473825Y283286D01*
X470523Y205774D02*
X474887Y210138D01*
X269473Y183552D02*
Y183552D01*
X516280Y221312D02*
X528612D01*
X473825Y283286D02*
X508802D01*
X433801Y192120D02*
X445406D01*
X433330Y189024D02*
X441869D01*
X551030Y247312D02*
Y257882D01*
X600405Y227577D02*
X606030Y233203D01*
Y247312D01*
X595030Y260729D02*
X600988Y266687D01*
X595030Y247312D02*
Y260729D01*
X540030Y235633D02*
Y247312D01*
X394263Y151552D02*
X395177Y150639D01*
X373473Y159552D02*
X377449Y163529D01*
X477660Y125626D02*
X477916Y125369D01*
X477660Y138431D02*
Y144626D01*
X524421Y127623D02*
X592471D01*
X583031Y183387D02*
X617030Y217386D01*
Y247312D01*
X603062Y172541D02*
Y194608D01*
X627724Y219271D01*
Y257226D01*
X618262Y266687D02*
X627724Y257226D01*
X600988Y266687D02*
X618262D01*
X525198Y146538D02*
X575342D01*
X583031Y154227D01*
Y183387D01*
X521747Y154725D02*
X577168D01*
X573526Y159968D02*
Y167323D01*
X570879Y157321D02*
X573526Y159968D01*
X523526Y157321D02*
X570879D01*
X573031Y235633D02*
Y247312D01*
X543873Y173901D02*
Y179106D01*
X543722Y179258D02*
X543873Y179106D01*
X389473Y239552D02*
X399184D01*
X376077Y288665D02*
X410157D01*
X385620Y187700D02*
X396253D01*
X389473Y191552D02*
X395987D01*
X388358Y195684D02*
X395026D01*
X389473Y199552D02*
X394264D01*
X392789Y215552D02*
X401088Y207254D01*
X389473Y215552D02*
X392789D01*
X385472Y219552D02*
X393725D01*
X404683Y208595D01*
X419281Y177726D02*
X438806Y158201D01*
X420109Y179726D02*
X439635Y160201D01*
X420938Y181726D02*
X440463Y162201D01*
X430017Y195905D02*
X433801Y192120D01*
X428450Y193905D02*
X433330Y189024D01*
X426472Y191905D02*
X444476Y173901D01*
X424709Y189905D02*
X444413Y170200D01*
X423244Y187905D02*
X442948Y168200D01*
X422416Y185905D02*
X442120Y166201D01*
X421587Y183905D02*
X441291Y164200D01*
X400048Y183905D02*
X421587D01*
X401635Y185905D02*
X422416D01*
X402805Y187905D02*
X423244D01*
X403912Y189905D02*
X424709D01*
X394264Y199552D02*
X403912Y189905D01*
X395026Y195684D02*
X402805Y187905D01*
X395987Y191552D02*
X401635Y185905D01*
X396253Y187700D02*
X400048Y183905D01*
X417314Y198174D02*
X426209Y207068D01*
X401088Y204183D02*
Y207254D01*
Y204183D02*
X407097Y198174D01*
X417314D01*
X406538Y195905D02*
X430017D01*
X405709Y193905D02*
X428450D01*
X404881Y191905D02*
X426472D01*
X390913Y211529D02*
X406538Y195905D01*
X389473Y207552D02*
X392062D01*
X405709Y193905D01*
X393265Y203521D02*
X404881Y191905D01*
X388491Y203521D02*
X393265D01*
X385496Y211529D02*
X390913D01*
X404683Y208595D02*
X409540D01*
X420881D01*
X424311Y212025D01*
X429159D01*
X389222Y227800D02*
X396728D01*
X392224Y251052D02*
X402228Y261056D01*
X438531D02*
X449609D01*
X554442Y371934D02*
Y381513D01*
X554367Y371858D02*
X554442Y371934D01*
X545607Y362648D02*
X554356D01*
X554367Y362658D01*
X545608Y357283D02*
Y362647D01*
X545607Y362648D02*
X545608Y362647D01*
X545607Y368548D02*
Y373812D01*
X545608Y373812D01*
X573038Y371858D02*
Y381513D01*
X572263Y381589D02*
X572338Y381513D01*
X564053Y388837D02*
X566805Y391589D01*
X572263D01*
X564053Y362736D02*
X573584D01*
X564053Y356897D02*
Y362736D01*
X505025Y377015D02*
X505501Y376539D01*
X504897Y348379D02*
X505025Y348507D01*
X514525Y354117D02*
Y361541D01*
Y354117D02*
X517140Y351502D01*
X579039D01*
X589316Y361779D01*
Y376571D01*
X495525Y352078D02*
Y361541D01*
Y352078D02*
X495615Y351988D01*
X505025Y348507D02*
X505117Y348599D01*
X504897Y342479D02*
X505421Y341956D01*
X389473Y247552D02*
X392583D01*
X510572Y277074D02*
X515257D01*
X510193Y277453D02*
X510572Y277074D01*
X510760Y283919D02*
X515351D01*
X510193Y283353D02*
X510760Y283919D01*
X470423Y276688D02*
X474458Y272653D01*
X493431D01*
X498231Y277453D01*
X409384Y240449D02*
Y244391D01*
X410542Y245549D01*
X415299D01*
X399184Y239552D02*
X410542Y250910D01*
X421595Y235950D02*
Y245920D01*
Y235950D02*
X421707Y235837D01*
X369188D02*
X421707D01*
X427484Y240968D02*
Y245909D01*
X427495Y245920D01*
X410542Y250910D02*
X439672D01*
X441884Y248699D01*
Y245920D02*
Y248699D01*
Y241837D02*
Y245920D01*
X395393Y250363D02*
X404337D01*
X408103Y254129D01*
X392583Y247552D02*
X395393Y250363D01*
X408103Y254129D02*
X440607D01*
X448566Y246170D01*
X451355D01*
X457255D02*
X466270D01*
X466334Y246234D01*
X466417Y219881D02*
Y246024D01*
X466270Y246170D02*
X466417Y246024D01*
X457988Y220397D02*
X461608D01*
X455305Y223081D02*
X457988Y220397D01*
X455305Y223081D02*
Y228417D01*
X441884Y241837D02*
X455305Y228417D01*
X472234Y241134D02*
Y246234D01*
X471967Y240866D02*
X472234Y241134D01*
X402228Y261056D02*
X438531D01*
X403749Y266547D02*
X409419D01*
X433304Y272447D02*
X434211Y271540D01*
X409419Y272447D02*
X433304D01*
X384996Y262126D02*
Y265880D01*
X386616Y267500D01*
X391663D01*
X406133Y281969D01*
X440881D01*
X404258Y294731D02*
X409259D01*
X395520Y294057D02*
X404658Y303194D01*
X453917D01*
X474887Y210138D02*
X483108D01*
X489348Y203898D01*
X511474D01*
X516126Y197997D02*
X516636Y197487D01*
X516353Y203898D02*
X516636Y204181D01*
X502135Y255427D02*
X508805Y262097D01*
X546816D01*
X551030Y257882D01*
X514130Y267789D02*
Y271565D01*
X515257Y272692D01*
Y277074D01*
X383744Y147507D02*
X385659Y145593D01*
X381473Y140530D02*
Y143552D01*
Y140530D02*
X385472Y136530D01*
X385659Y141851D02*
Y145593D01*
Y141851D02*
X387921Y139589D01*
X373473Y143552D02*
X377482Y139542D01*
X365472Y135552D02*
X369482Y131542D01*
Y118614D02*
Y131542D01*
X385472Y117973D02*
Y136530D01*
Y117973D02*
X414720Y88726D01*
Y35654D02*
Y88726D01*
X369482Y118614D02*
X382500Y105596D01*
X405144Y157617D02*
X420719D01*
X457813Y120522D01*
X606792D01*
X404418Y155130D02*
X420391D01*
X437668Y137853D01*
Y115331D02*
Y137853D01*
X439483Y153544D02*
X493587D01*
X455000Y142850D02*
X464977D01*
X465327Y142500D02*
X467500D01*
X471569Y138431D01*
X464977Y142850D02*
X465000Y142827D01*
X465327Y142500D01*
X471569Y138431D02*
X477660D01*
X455000Y133800D02*
Y137150D01*
Y133800D02*
X463174Y125626D01*
X477660D01*
X573526Y173779D02*
Y201518D01*
X0Y0D02*
Y399996D01*
Y0D02*
X750004D01*
Y399996D01*
X0D02*
X750004D01*
D44*
X362000Y343000D02*
Y358000D01*
X173500Y386500D02*
X181000D01*
D45*
X173250Y292654D02*
X177420Y288484D01*
X173250Y292654D02*
Y332000D01*
X205000Y355000D02*
Y371000D01*
X189000Y355000D02*
X205000D01*
X221000D01*
X205000Y339000D02*
Y355000D01*
X162500Y340000D02*
X163500Y341000D01*
X173250D01*
X162500Y355000D02*
X166500Y359000D01*
X173250D01*
X163000Y377000D02*
X173250D01*
X150650Y334002D02*
X161502D01*
X110998D02*
X121150D01*
X396357Y143552D02*
X412995Y126914D01*
X589314Y392573D02*
X589316Y392571D01*
X582099Y392573D02*
X589314D01*
X639316Y392571D02*
X639505Y392759D01*
X646797D01*
X671914Y278756D02*
X671986Y278828D01*
X684757D01*
X671886Y248284D02*
X671914Y248256D01*
X651436Y248284D02*
X671886D01*
X653780Y221312D02*
X653854Y221386D01*
X653755Y221286D02*
X653780Y221312D01*
X653854Y221386D02*
Y234215D01*
X641449Y304312D02*
X653780D01*
X562030Y247312D02*
Y258991D01*
X584030Y247312D02*
Y258991D01*
D46*
X127742Y366742D02*
X173250D01*
X83875Y366698D02*
X94398D01*
X104399Y366698D02*
X121997D01*
X135900Y349252D02*
Y361000D01*
D47*
X256500Y305500D02*
D03*
X679803Y62700D02*
D03*
D48*
X281900Y309500D02*
D03*
X307300Y305500D02*
D03*
X332700Y309500D02*
D03*
X358100Y305500D02*
D03*
X383500Y309500D02*
D03*
X19500Y215200D02*
D03*
X44900Y240600D02*
D03*
X19500D02*
D03*
X44900Y266000D02*
D03*
X19500D02*
D03*
X44900Y291400D02*
D03*
X19500D02*
D03*
X679803Y37300D02*
D03*
X654403Y62700D02*
D03*
Y37300D02*
D03*
X629003Y62700D02*
D03*
Y37300D02*
D03*
X603603Y62700D02*
D03*
Y37300D02*
D03*
X578203Y62700D02*
D03*
Y37300D02*
D03*
X552803Y62700D02*
D03*
Y37300D02*
D03*
X527403Y62700D02*
D03*
Y37300D02*
D03*
X502003Y62700D02*
D03*
Y37300D02*
D03*
X476603Y62700D02*
D03*
Y37300D02*
D03*
X451203Y62700D02*
D03*
Y37300D02*
D03*
X425803Y62700D02*
D03*
Y37300D02*
D03*
X400403Y62700D02*
D03*
Y37300D02*
D03*
X375003Y62700D02*
D03*
Y37300D02*
D03*
X349603Y62700D02*
D03*
Y37300D02*
D03*
X298803Y62700D02*
D03*
Y37300D02*
D03*
X273403Y62700D02*
D03*
Y37300D02*
D03*
X248003Y62700D02*
D03*
Y37300D02*
D03*
X222603Y62700D02*
D03*
Y37300D02*
D03*
X197203Y62700D02*
D03*
Y37300D02*
D03*
X171803Y62700D02*
D03*
Y37300D02*
D03*
X146403Y62700D02*
D03*
Y37300D02*
D03*
X121003Y62700D02*
D03*
Y37300D02*
D03*
X95603Y62700D02*
D03*
Y37300D02*
D03*
X70203Y62700D02*
D03*
Y37300D02*
D03*
X324203D02*
D03*
Y62700D02*
D03*
X730500Y164000D02*
D03*
Y189400D02*
D03*
Y214800D02*
D03*
Y240200D02*
D03*
Y265600D02*
D03*
Y291000D02*
D03*
X705100Y164000D02*
D03*
Y189400D02*
D03*
Y214800D02*
D03*
Y240200D02*
D03*
Y265600D02*
D03*
D49*
X44900Y215200D02*
D03*
X705100Y291000D02*
D03*
D50*
X604566Y392071D02*
D03*
X624067D02*
D03*
D51*
X705003Y361400D02*
D03*
X44503Y145200D02*
D03*
D52*
X103000Y391000D02*
D03*
X184000Y366000D02*
D03*
X161000Y304000D02*
D03*
X388000Y342000D02*
D03*
X362000Y343000D02*
D03*
X715000Y102000D02*
D03*
X708500Y108000D02*
D03*
X703500Y100500D02*
D03*
X289000Y163000D02*
D03*
X281000D02*
D03*
X256920Y155000D02*
D03*
X446000Y96000D02*
D03*
X390000Y99000D02*
D03*
X312960Y147000D02*
D03*
X697750Y141000D02*
D03*
X703500Y135500D02*
D03*
X708500Y141000D02*
D03*
X714250Y135250D02*
D03*
X687250Y207250D02*
D03*
X676500Y207500D02*
D03*
X528312Y321312D02*
D03*
X527688Y304312D02*
D03*
X497000Y290000D02*
D03*
X173500Y386500D02*
D03*
X184000Y343000D02*
D03*
X208000Y379000D02*
D03*
X226000Y376000D02*
D03*
X259000Y378000D02*
D03*
X258000Y369000D02*
D03*
X251000Y383000D02*
D03*
X248000Y360000D02*
D03*
X248000Y351000D02*
D03*
X248000Y342000D02*
D03*
Y333000D02*
D03*
X210000Y314000D02*
D03*
X201000Y312000D02*
D03*
X192000Y312000D02*
D03*
X183000Y308000D02*
D03*
X320874Y162954D02*
D03*
X205000Y363000D02*
D03*
X197000Y355000D02*
D03*
X205000Y347000D02*
D03*
X213000Y355000D02*
D03*
X212000Y241000D02*
D03*
X151000Y213000D02*
D03*
X163304Y231130D02*
D03*
X212000Y248000D02*
D03*
X221000Y241000D02*
D03*
Y248000D02*
D03*
X401000Y313887D02*
D03*
X446000Y107000D02*
D03*
X489000D02*
D03*
X638198Y137712D02*
D03*
X653780Y195219D02*
D03*
X551000Y320000D02*
D03*
X465000Y348000D02*
D03*
X603000Y362000D02*
D03*
X625000Y118189D02*
D03*
X345482Y139562D02*
D03*
X346071Y132151D02*
D03*
X305473Y163552D02*
D03*
X95000Y142500D02*
D03*
X97500Y135000D02*
D03*
X140000Y122500D02*
D03*
X130000Y135000D02*
D03*
X137500Y140000D02*
D03*
X125000Y130000D02*
D03*
X177563Y280745D02*
D03*
X177420Y288484D02*
D03*
X184514Y280888D02*
D03*
X184586Y288340D02*
D03*
X162500Y340000D02*
D03*
Y355000D02*
D03*
X102500Y357500D02*
D03*
X105000Y350000D02*
D03*
Y340000D02*
D03*
Y330000D02*
D03*
X97500Y325000D02*
D03*
X87500D02*
D03*
X77500D02*
D03*
X67500D02*
D03*
X57500D02*
D03*
X47500D02*
D03*
X37500D02*
D03*
X27500D02*
D03*
X17500D02*
D03*
X7500D02*
D03*
X115000Y315000D02*
D03*
X125000D02*
D03*
X142500D02*
D03*
X152500D02*
D03*
X112500Y355000D02*
D03*
X122500D02*
D03*
X152500D02*
D03*
Y377500D02*
D03*
X142500D02*
D03*
X132500D02*
D03*
X122500D02*
D03*
X102500D02*
D03*
X112500Y382500D02*
D03*
X306071Y266954D02*
D03*
X258071Y180151D02*
D03*
X281873Y188052D02*
D03*
X336900Y203968D02*
D03*
X321473Y195552D02*
D03*
X305541Y251567D02*
D03*
X418222Y150434D02*
D03*
X387052Y388854D02*
D03*
X660489Y354664D02*
D03*
X660195Y388699D02*
D03*
X448792Y118110D02*
D03*
X426377Y112169D02*
D03*
X361515Y275574D02*
D03*
X329438Y267569D02*
D03*
X329341Y275370D02*
D03*
X274303Y250722D02*
D03*
X261472Y287579D02*
D03*
X431660Y372356D02*
D03*
X444360D02*
D03*
X582099Y392573D02*
D03*
X646797Y392759D02*
D03*
X684757Y278828D02*
D03*
X651436Y248284D02*
D03*
X653854Y234215D02*
D03*
X554868Y173860D02*
D03*
X597140Y167600D02*
D03*
X592554Y111895D02*
D03*
X500729Y125388D02*
D03*
X547831Y97542D02*
D03*
X567750Y112962D02*
D03*
X306071Y242954D02*
D03*
X422373Y224206D02*
D03*
X415299Y245549D02*
D03*
X604978Y145893D02*
D03*
X583631Y139569D02*
D03*
X419994Y121268D02*
D03*
X437668Y115331D02*
D03*
X237472Y122604D02*
D03*
X290071Y138954D02*
D03*
X272874Y146954D02*
D03*
X362071Y268151D02*
D03*
X288874D02*
D03*
X257374Y259554D02*
D03*
X341473Y284501D02*
D03*
X394421Y263552D02*
D03*
X250071Y132151D02*
D03*
X242071Y154954D02*
D03*
X248874Y188151D02*
D03*
X345813Y267199D02*
D03*
X266071Y266954D02*
D03*
X242071Y274954D02*
D03*
X377671Y211354D02*
D03*
X352874Y234954D02*
D03*
X277472Y122604D02*
D03*
X317472D02*
D03*
X357472D02*
D03*
X394421Y183552D02*
D03*
Y223552D02*
D03*
X232524Y247552D02*
D03*
Y167552D02*
D03*
Y239552D02*
D03*
Y215552D02*
D03*
X381473Y284501D02*
D03*
X377771Y203254D02*
D03*
X370071Y250954D02*
D03*
X354071Y228151D02*
D03*
X352874Y220151D02*
D03*
X377574Y187554D02*
D03*
X376574Y178754D02*
D03*
X322071Y148151D02*
D03*
X250071Y178954D02*
D03*
X274071Y170954D02*
D03*
X362071Y148151D02*
D03*
X330071Y172151D02*
D03*
X354071Y164151D02*
D03*
X274071Y204151D02*
D03*
Y196151D02*
D03*
X338071Y226954D02*
D03*
X330071Y220151D02*
D03*
X296874Y252151D02*
D03*
X314071Y242954D02*
D03*
X280874D02*
D03*
X368874Y188151D02*
D03*
X370071Y164151D02*
D03*
X362071D02*
D03*
X368874Y156151D02*
D03*
X360874D02*
D03*
X368874Y172151D02*
D03*
X369274Y179651D02*
D03*
X360874Y172151D02*
D03*
Y180151D02*
D03*
X352874D02*
D03*
Y172151D02*
D03*
X346071Y164151D02*
D03*
X338071Y156151D02*
D03*
X360874Y188151D02*
D03*
X352874D02*
D03*
X370071Y196151D02*
D03*
Y204051D02*
D03*
X362071Y196151D02*
D03*
Y204151D02*
D03*
X354071Y212151D02*
D03*
X362071D02*
D03*
Y220151D02*
D03*
X370071Y212151D02*
D03*
X376874Y220151D02*
D03*
Y228151D02*
D03*
X368874D02*
D03*
X346071Y196151D02*
D03*
X338071Y180151D02*
D03*
X395485Y243951D02*
D03*
X463825Y273286D02*
D03*
X447021Y283286D02*
D03*
X515257Y277074D02*
D03*
X516636Y197487D02*
D03*
X527452Y183099D02*
D03*
X592471Y127623D02*
D03*
X577168Y154725D02*
D03*
X426209Y207068D02*
D03*
X412995Y126914D02*
D03*
X606792Y120354D02*
D03*
X567727Y101935D02*
D03*
X527494Y131905D02*
D03*
X274071Y180151D02*
D03*
X266071D02*
D03*
X290071Y172151D02*
D03*
X306071Y196151D02*
D03*
X282071Y204151D02*
D03*
X328874Y196151D02*
D03*
X304474Y220551D02*
D03*
X312874Y234954D02*
D03*
X288571Y226751D02*
D03*
X306071Y186954D02*
D03*
X320874Y188151D02*
D03*
X336874Y210954D02*
D03*
X352874Y204151D02*
D03*
X314071Y210954D02*
D03*
X282071Y234954D02*
D03*
X298071D02*
D03*
X274071Y220151D02*
D03*
X266071Y228151D02*
D03*
X313374Y227654D02*
D03*
X314071Y170954D02*
D03*
X487147Y116181D02*
D03*
X447679Y255427D02*
D03*
X515351Y283919D02*
D03*
X516636Y204181D02*
D03*
X344874Y188151D02*
D03*
X264874Y156151D02*
D03*
X288874Y148151D02*
D03*
X296874Y210954D02*
D03*
X330071Y132151D02*
D03*
X528612Y221312D02*
D03*
X641449Y304312D02*
D03*
X517220Y127936D02*
D03*
X562030Y258991D02*
D03*
X584030D02*
D03*
X540030Y235633D02*
D03*
X543722Y179258D02*
D03*
X398392Y155120D02*
D03*
X477602Y138373D02*
D03*
X469760Y321556D02*
D03*
X457060Y372356D02*
D03*
X469760D02*
D03*
X533891Y138678D02*
D03*
X485875Y125369D02*
D03*
X573466Y201518D02*
D03*
X573031Y235633D02*
D03*
X560997Y168020D02*
D03*
X297973Y276052D02*
D03*
X404258Y294731D02*
D03*
X414590Y202653D02*
D03*
X427484Y240968D02*
D03*
X422286Y333250D02*
D03*
X547601Y391505D02*
D03*
X545608Y357283D02*
D03*
Y373812D02*
D03*
X564012Y377945D02*
D03*
X564053Y356840D02*
D03*
X504973Y376313D02*
D03*
X510560Y348599D02*
D03*
X510636Y341956D02*
D03*
X495345Y351960D02*
D03*
X435942Y240968D02*
D03*
X472341Y241053D02*
D03*
X474887Y210138D02*
D03*
X241517Y243552D02*
D03*
X228365Y227212D02*
D03*
X257454Y227543D02*
D03*
X257460Y235504D02*
D03*
X284752Y287758D02*
D03*
X153516Y174630D02*
D03*
X153504Y184118D02*
D03*
X165870Y172853D02*
D03*
X172248Y172710D02*
D03*
X162933Y193131D02*
D03*
X172319Y193203D02*
D03*
X130452Y166437D02*
D03*
X137997Y166404D02*
D03*
X122304Y166476D02*
D03*
X130250Y238000D02*
D03*
X121803Y238274D02*
D03*
X138570Y238059D02*
D03*
X166749Y163687D02*
D03*
X152968Y153405D02*
D03*
X102303Y171221D02*
D03*
X91649Y154931D02*
D03*
X102102Y242784D02*
D03*
X172118Y264766D02*
D03*
X162731Y264694D02*
D03*
X172046Y244273D02*
D03*
X165669Y244416D02*
D03*
X153303Y255681D02*
D03*
X153315Y246192D02*
D03*
X117788Y222346D02*
D03*
X173392Y233179D02*
D03*
X167751Y235273D02*
D03*
X290071Y156151D02*
D03*
X298071Y154954D02*
D03*
X312874Y162954D02*
D03*
Y138954D02*
D03*
X330071Y124151D02*
D03*
X346071D02*
D03*
Y148151D02*
D03*
X336874Y140151D02*
D03*
X373473Y122604D02*
D03*
X389473D02*
D03*
X381473D02*
D03*
X382500Y105596D02*
D03*
M02*
