M48
;Layer_Color=9474304
;FILE_FORMAT=4:4
METRIC,LZ
;TYPE=PLATED
T1F00S00C0.2500
T2F00S00C1.0000
T3F00S00C3.2000
;TYPE=NON_PLATED
T4F00S00C0.8000
T5F00S00C1.1000
T6F00S00C1.6000
%
T01
X00592554Y00111895
X00592471Y00127623
X00606792Y00120354
X00625Y00118189
X00638198Y00137712
X00604978Y00145893
X0059714Y001676
X0065378Y00195219
X006765Y002075
X0068725Y0020725
X00653854Y00234215
X00651436Y00248284
X00684757Y00278828
X00641449Y00304312
X00660489Y00354664
X00660195Y00388699
X00646797Y00392759
X00603Y00362
X0069775Y00141
X007085
X007035Y001355
X0071425Y0013525
X007085Y00108
X00715Y00102
X007035Y001005
X00567727Y00101935
X0056775Y00112962
X00547831Y00097542
X00527494Y00131905
X00533891Y00138678
X0051722Y00127936
X00500729Y00125388
X00485875Y00125369
X00487147Y00116181
X00489Y00107
X00477602Y00138373
X00448792Y0011811
X00446Y00107
Y00096
X00437668Y00115331
X00426377Y00112169
X00419994Y00121268
X00412995Y00126914
X00389473Y00122604
X00381473
X00373473
X00357472
X00346071Y00124151
Y00132151
X00345482Y00139562
X00346071Y00148151
X00362071
X00360874Y00156151
X00368874
X00370071Y00164151
X00362071
X00354071
X00346071
X00352874Y00172151
X00360874
Y00180151
X00352874
Y00188151
X00360874
X00368874
X00369274Y00179651
X00368874Y00172151
X00376574Y00178754
X00377574Y00187554
X00377771Y00203254
X00377671Y00211354
X00370071Y00212151
X00362071
Y00204151
Y00196151
X00370071
Y00204051
X00352874Y00204151
X00354071Y00212151
X00352874Y00220151
X00354071Y00228151
X00352874Y00234954
X00338071Y00226954
X00330071Y00220151
X00336874Y00210954
X003369Y00203968
X00328874Y00196151
X00321473Y00195552
X00320874Y00188151
X00306071Y00186954
Y00196151
X00314071Y00210954
X00296874
X00304474Y00220551
X00313374Y00227654
X00312874Y00234954
X00314071Y00242954
X00306071
X00305541Y00251567
X00296874Y00252151
X00298071Y00234954
X00282071
X00280874Y00242954
X00274303Y00250722
X00266071Y00266954
X00257374Y00259554
X0025746Y00235504
X00257454Y00227543
X00266071Y00228151
X00274071Y00220151
Y00204151
Y00196151
X00281873Y00188052
X00274071Y00180151
X00266071
X00258071
X00250071Y00178954
X00248874Y00188151
X00232524Y00167552
X00242071Y00154954
X0025692Y00155
X00264874Y00156151
X00272874Y00146954
X00288874Y00148151
X00290071Y00156151
X00289Y00163
X00281
X00274071Y00170954
X00290071Y00172151
X00305473Y00163552
X00312874Y00162954
X00320874
X00314071Y00170954
X00330071Y00172151
X00338071Y00180151
X00344874Y00188151
X00346071Y00196151
X00362071Y00220151
X00368874Y00228151
X00376874
Y00220151
X00394421Y00223552
X00395485Y00243951
X00394421Y00263552
X00381473Y00284501
X00361515Y00275574
X00362071Y00268151
X00345813Y00267199
X00329438Y00267569
X00329341Y0027537
X00341473Y00284501
X00297973Y00276052
X00288874Y00268151
X00306071Y00266954
X00284752Y00287758
X00261472Y00287579
X00242071Y00274954
X00241517Y00243552
X00232524Y00239552
Y00247552
X00221Y00248
Y00241
X00212
Y00248
X00228365Y00227212
X00232524Y00215552
X00282071Y00204151
X00288571Y00226751
X00298071Y00154954
X0031296Y00147
X00312874Y00138954
X00322071Y00148151
X00336874Y00140151
X00330071Y00132151
Y00124151
X00317472Y00122604
X00277472
X00290071Y00138954
X00250071Y00132151
X00237472Y00122604
X00338071Y00156151
X00398392Y0015512
X00418222Y00150434
X0041459Y00202653
X00426209Y00207068
X00422373Y00224206
X00427484Y00240968
X00435942Y00240968
X00415299Y00245549
X00447679Y00255427
X00447021Y00283286
X00463825Y00273286
X00472341Y00241053
X00474887Y00210138
X00516636Y00204181
Y00197487
X00527452Y00183099
X00543722Y00179258
X00554868Y0017386
X00560997Y0016802
X00577168Y00154725
X00583631Y00139569
X00573466Y00201518
X00573031Y00235633
X0054003
X00528612Y00221312
X00515257Y00277074
X00515351Y00283919
X00497Y0029
X00527688Y00304312
X00528312Y00321312
X00551Y0032
X00545608Y00357283
Y00373812
X00547601Y00391505
X00564012Y00377945
X00564053Y0035684
X00582099Y00392573
X00504973Y00376313
X0051056Y00348599
X00510636Y00341956
X00495345Y0035196
X00465Y00348
X0046976Y00372356
X0045706
X0044436
X0043166
X00422286Y0033325
X00401Y00313887
X00404258Y00294731
X00388Y00342
X00362Y00343
X00387052Y00388854
X00259Y00378
X00258Y00369
X00248Y0036
X00248Y00351
X00248Y00342
Y00333
X00251Y00383
X00226Y00376
X00208Y00379
X00205Y00363
X00213Y00355
X00197
X00205Y00347
X0021Y00314
X00201Y00312
X00370071Y00250954
X00394421Y00183552
X0039Y00099
X003825Y00105596
X0046976Y00321556
X0056203Y00258991
X0058403
X00172118Y00264766
X00162731Y00264694
X00153303Y00255681
X00153315Y00246192
X00165669Y00244416
X00172046Y00244273
X00173392Y00233179
X00167751Y00235273
X00163304Y0023113
X00151Y00213
X00153504Y00184118
X00153516Y0017463
X0016587Y00172853
X00172248Y0017271
X00166749Y00163687
X00152968Y00153405
X00137997Y00166404
X00130452Y00166437
X00122304Y00166476
X00102303Y00171221
X00091649Y00154931
X00095Y001425
X000975Y00135
X0013
X00125Y0013
X0014Y001225
X001375Y0014
X00162933Y00193131
X00172319Y00193203
X0013857Y00238059
X0013025Y00238
X00121803Y00238274
X00117788Y00222346
X00102102Y00242784
X00115Y00315
X00125
X001425
X001525
X00161Y00304
X00183Y00308
X00192Y00312
X00184586Y0028834
X0017742Y00288484
X00177563Y00280745
X00184514Y00280888
X00184Y00343
Y00366
X001735Y003865
X001525Y003775
X001425
X001325
X001225
X001125Y003825
X001025Y003775
X00103Y00391
X001025Y003575
X00105Y0035
Y0034
Y0033
X000975Y00325
X000875
X000775
X000675
X000575
X000475
X000375
X000275
X000175
X000075
X001125Y00355
X001225
X001525
X001625
Y0034
T02
X00070203Y000373
X00095603
X00121003
X00146403
X00171803
Y000627
X00146403
X00121003
X00095603
X00070203
X00197203
X00222603
X00248003
X00273403
X00298803
Y000373
X00273403
X00248003
X00222603
X00197203
X00324203
X00349603
X00375003
X00400403
X00425803
X00451203
X00476603
X00502003
X00527403
X00552803
X00578203
Y000627
X00552803
X00527403
X00502003
X00476603
X00451203
X00425803
X00400403
X00375003
X00349603
X00324203
X00603603
X00629003
X00654403
X00679803
Y000373
X00654403
X00629003
X00603603
X007051Y00164
X007305
Y001894
Y002148
Y002402
Y002656
Y00291
X007051
Y002656
Y002402
Y002148
Y001894
X003835Y003095
X003581Y003055
X003327Y003095
X003073Y003055
X002819Y003095
X002565Y003055
X000449Y002914
Y00266
Y002406
Y002152
X000195
Y002406
Y00266
Y002914
T03
X00705003Y003614
X00044503Y001452
T04
X00604566Y00392071
X00624067
T05
X00408709Y00166678
T06
X00618709Y00166678
M30
